<?xml version="1.0" encoding="UTF-8"?>
<!DOCTYPE svg PUBLIC "-//W3C//DTD SVG 1.1//EN" "http://www.w3.org/Graphics/SVG/1.1/DTD/svg11.dtd">
<!-- Creator: CorelDRAW 2019 (64-Bit) -->
<?xml-stylesheet href="KE_plane_1.css" type="text/css"?>
<svg xmlns="http://www.w3.org/2000/svg" xml:space="preserve" width="139.7mm" height="107.95mm" version="1.1" style="shape-rendering:geometricPrecision; text-rendering:geometricPrecision; image-rendering:optimizeQuality; fill-rule:evenodd; clip-rule:evenodd"
viewBox="0 0 13969.98 10794.98"
 xmlns:xlink="http://www.w3.org/1999/xlink">
 <g id="Capa_x0020_1">
  <metadata id="CorelCorpID_0Corel-Layer"/>
  <g id="_2353359088352">
   <path class="fil0" d="M1567.06 1812.6c-181.23,-79.87 -96.49,-425.58 149.68,-334.23 222.03,82.48 70.09,431.16 -149.68,334.23zm21.89 -611.23c-450.87,120.99 -443.55,640 -147.43,1070.09 82.95,120.48 146.12,278.23 287.05,167.45 29.65,-23.31 189.62,-266.87 217.68,-321.25 294.85,-571.3 -31.74,-1003.64 -357.3,-916.29z"/>
   <path class="fil0" d="M1689.75 3036.35c288.79,-13.69 227.87,-169.04 -44.21,-170.36 -255.9,-1.27 -350,149.77 -61.77,169.26l-1.34 48.4 -1.17 55.86 -0.77 55.42 -0.38 54.97 0.01 54.53 0.41 54.1 0.79 53.66 1.16 53.22 1.55 52.8 1.93 52.35 2.3 51.94 2.67 51.48 3.02 51.08 3.42 50.64 3.75 50.23 4.13 49.78 4.47 49.38 4.84 48.94 5.18 48.54 5.54 48.12 2.76 22.34 105.22 -12.53 -2.76 -22.35 -5.44 -47.26 -5.09 -47.68 -4.74 -48.1 -4.41 -48.55 -4.05 -48.97 -3.7 -49.39 -3.35 -49.83 -3 -50.26 -2.62 -50.7 -2.26 -51.13 -1.9 -51.58 -1.52 -52 -1.15 -52.45 -0.77 -52.9 -0.4 -53.32 -0.01 -53.78 0.36 -54.22 0.77 -54.67 1.15 -55.12 1.38 -49.89zm4335.92 3582.96l-4.05 11.32 -4.36 11.25 -4.67 11.16 -5.02 11.13 -5.32 11.07 -5.63 11.01 -5.95 10.92 -6.27 10.87 -6.57 10.79 -6.9 10.74 -7.2 10.67 -7.51 10.58 -7.82 10.52 -8.12 10.44 -8.44 10.37 -8.73 10.29 -9.04 10.2 -9.35 10.13 -9.64 10.04 -9.92 9.95 -10.24 9.86 -10.52 9.77 -10.81 9.69 -11.1 9.56 -11.38 9.49 -11.67 9.39 -11.96 9.28 -12.21 9.17 -12.5 9.05 -12.78 8.96 -13.05 8.84 -13.3 8.73 -13.58 8.61 -13.83 8.49 -14.1 8.37 -14.35 8.25 -18.29 10.12 49.59 93.66 20.87 -11.54 15.64 -8.98 15.41 -9.16 15.17 -9.31 14.9 -9.46 14.66 -9.61 14.4 -9.76 14.15 -9.91 13.88 -10.07 13.63 -10.23 13.34 -10.37 13.08 -10.51 12.81 -10.66 12.53 -10.81 12.25 -10.97 11.95 -11.09 11.68 -11.27 11.38 -11.39 11.08 -11.56 10.79 -11.68 10.49 -11.84 10.17 -11.98 9.86 -12.13 9.54 -12.25 9.22 -12.41 8.91 -12.56 8.56 -12.68 8.23 -12.82 7.9 -12.97 7.55 -13.09 7.21 -13.25 6.84 -13.37 6.49 -13.46 6.12 -13.64 5.77 -13.76 5.38 -13.86 5 -13.99 -100.25 -34.34zm-639.96 485.28l-15.17 4.53 -18.82 5.39 -19.04 5.24 -19.21 5.08 -19.39 4.9 -19.59 4.74 -19.75 4.58 -19.94 4.41 -20.11 4.24 -20.28 4.06 -20.44 3.89 -20.61 3.72 -20.77 3.53 -20.93 3.36 -21.1 3.19 -21.22 3 -21.39 2.81 -21.54 2.63 -21.66 2.45 -21.82 2.25 -21.95 2.07 -22.08 1.88 -22.21 1.68 -22.35 1.5 -22.48 1.3 -22.58 1.11 -22.7 0.91 -22.81 0.7 -22.94 0.5 -23.05 0.31 -23.16 0.11 -23.24 -0.11 -23.36 -0.31 -23.45 -0.51 -23.55 -0.73 -23.64 -0.93 -23.73 -1.15 -23.8 -1.36 -23.91 -1.58 -23.96 -1.79 -24.05 -2.01 -24.13 -2.22 -24.18 -2.45 -24.27 -2.67 -24.32 -2.89 -24.38 -3.12 -18.39 -2.51 -14.82 104.92 19.31 2.65 25.3 3.24 25.25 2.99 25.19 2.78 25.11 2.54 25.05 2.31 24.98 2.09 24.89 1.86 24.82 1.62 24.74 1.43 24.65 1.18 24.56 0.97 24.47 0.76 24.39 0.54 24.29 0.32 24.18 0.11 24.09 -0.11 23.98 -0.32 23.87 -0.52 23.77 -0.74 23.65 -0.94 23.54 -1.16 23.41 -1.36 23.3 -1.56 23.17 -1.74 23.05 -1.98 22.91 -2.15 22.79 -2.36 22.64 -2.55 22.5 -2.77 22.38 -2.92 22.22 -3.15 22.06 -3.34 21.93 -3.5 21.77 -3.72 21.63 -3.89 21.45 -4.08 21.3 -4.28 21.13 -4.45 20.97 -4.64 20.79 -4.81 20.64 -4.99 20.44 -5.19 20.28 -5.34 20.08 -5.54 19.9 -5.69 15.18 -4.54 -29.73 -101.71zm-1333.3 3.94l-21.97 -5.65 -24.94 -6.63 -24.96 -6.9 -24.99 -7.14 -24.99 -7.39 -25 -7.64 -24.98 -7.88 -24.98 -8.15 -25 -8.4 -24.98 -8.65 -24.98 -8.92 -24.96 -9.17 -24.95 -9.42 -24.93 -9.7 -24.91 -9.94 -24.87 -10.22 -24.86 -10.48 -24.84 -10.75 -24.79 -11.02 -24.77 -11.29 -24.72 -11.55 -24.67 -11.83 -24.64 -12.1 -24.59 -12.38 -24.55 -12.65 -24.48 -12.94 -24.45 -13.21 -24.37 -13.48 -24.3 -13.78 -24.27 -14.06 -24.17 -14.34 -24.11 -14.62 -24.05 -14.92 -23.97 -15.19 -23.88 -15.49 -23.82 -15.79 -23.72 -16.08 -23.62 -16.36 -8.06 -5.7 -61.65 86.18 8.92 6.33 24.52 16.97 24.61 16.69 24.71 16.38 24.78 16.07 24.88 15.77 24.93 15.47 25.02 15.18 25.09 14.87 25.17 14.59 25.23 14.29 25.29 13.99 25.34 13.71 25.42 13.41 25.46 13.13 25.5 12.84 25.56 12.55 25.6 12.28 25.65 11.98 25.69 11.71 25.72 11.42 25.75 11.16 25.78 10.88 25.83 10.59 25.83 10.33 25.86 10.05 25.88 9.78 25.88 9.51 25.9 9.23 25.91 8.99 25.91 8.69 25.92 8.46 25.93 8.18 25.91 7.92 25.92 7.67 25.9 7.4 25.89 7.14 25.88 6.89 21.97 5.65 26.8 -102.52zm-1184.98 -625.57l-22.92 -20.48 -22.23 -20.32 -22.14 -20.64 -22 -20.97 -21.86 -21.26 -21.74 -21.6 -21.59 -21.91 -21.45 -22.24 -21.31 -22.55 -21.17 -22.9 -21.01 -23.21 -20.86 -23.53 -20.7 -23.88 -20.56 -24.19 -20.4 -24.53 -20.22 -24.87 -20.06 -25.2 -19.89 -25.54 -19.73 -25.87 -19.55 -26.21 -19.36 -26.56 -19.19 -26.91 -19.01 -27.23 -18.81 -27.6 -18.64 -27.94 -18.43 -28.28 -18.25 -28.65 -18.05 -28.98 -17.85 -29.35 -17.64 -29.69 -17.43 -30.06 -21.28 -37.74 -93 50.8 4.58 8.28 17.76 31.36 17.98 31.01 18.21 30.64 18.42 30.28 18.63 29.93 18.83 29.57 19.04 29.22 19.26 28.86 19.44 28.51 19.66 28.16 19.82 27.8 20.03 27.46 20.21 27.11 20.41 26.77 20.58 26.41 20.75 26.08 20.93 25.73 21.11 25.41 21.28 25.04 21.44 24.71 21.61 24.39 21.77 24.03 21.92 23.71 22.08 23.38 22.22 23.04 22.39 22.7 22.51 22.38 22.67 22.06 22.81 21.72 22.94 21.4 23.07 21.08 23.73 21.22 70.24 -79.36zm-785.41 -1091.38l-16.01 -36.38 -14.73 -34.45 -14.49 -34.84 -14.24 -35.2 -14 -35.61 -13.74 -35.97 -13.47 -36.36 -13.23 -36.73 -12.96 -37.13 -12.71 -37.52 -12.42 -37.9 -12.16 -38.29 -11.87 -38.7 -11.61 -39.08 -11.32 -39.47 -11.05 -39.88 -10.75 -40.26 -10.47 -40.67 -10.17 -41.07 -9.89 -41.47 -9.59 -41.88 -9.27 -42.28 -8.98 -42.69 -8.68 -43.1 -8.36 -43.51 -5.39 -29.43 -104.32 18.65 5.57 30.34 8.53 44.4 8.85 43.99 9.17 43.61 9.49 43.2 9.79 42.79 10.1 42.4 10.4 41.99 10.71 41.6 11 41.22 11.31 40.81 11.6 40.4 11.89 40.03 12.17 39.63 12.45 39.25 12.75 38.87 13.02 38.46 13.29 38.09 13.56 37.7 13.85 37.32 14.1 36.93 14.37 36.56 14.64 36.18 14.89 35.79 15.14 35.43 16.44 37.34 96.8 -43.11z"/>
   <g>
    <path class="fil0" d="M11184.6 7244.36c0,-109.23 -154.17,-109.23 -154.17,0 0,98.23 154.17,103.68 154.17,0zm668.12 77.1c43.59,0 85.66,-37.02 85.66,-77.1 0,-69.58 -79.97,-108.04 -131.38,-62.95 -56.79,49.81 -15.99,140.05 45.72,140.05zm890.83 -1404.77c-17,63.67 -119.98,200.5 -22.03,416.05 13.19,29.03 14.68,18.94 22.03,46.5 61,-16.29 261.78,-167.12 261.78,-231.28 0,-64.16 -200.78,-214.98 -261.78,-231.27zm-2098.58 -479.68c74.21,-35.6 490.14,-69.78 505.38,-77.09 -14.52,-19.8 -111.35,-74.85 -138.73,-92.54 -50.3,-32.53 -96.61,-58.94 -148.89,-90.96l-217.37 -133.82c-26.64,-16.09 -43.3,-34.47 -77.48,-42.44l-94.22 119.92c13.89,52.02 158.35,261.3 171.31,316.93zm2561.13 710.95c0,336.71 -699.67,576.33 -1005.15,665.15l-342.91 77.26c-79.2,12.26 -36.85,9.49 -22.44,71.32 162.59,0 299.79,108.8 299.79,248.41 0,92.9 -14.29,164.9 -78.87,229.48 -213.68,213.67 -574.22,-23.97 -454.95,-309.33 20.09,-48.08 31.5,-49.08 54.15,-82.9 -18.26,-38.05 -41.6,-77.85 -51.39,-119.91 -70.89,0 -107.36,8.56 -179.88,8.56l-205.58 0c-62.03,0 -85.79,-8.56 -145.62,-8.56 36.3,68.59 115.79,11.05 216.31,100.62 200.48,178.62 83.23,490.4 -199.17,490.4 -80.2,0 -136.16,-37.12 -177.9,-79.07 -103.71,-104.21 -106.39,-246.26 -26.89,-366.19 34.07,-51.42 -25.99,-130.51 -52.18,-180.02 -58.95,13.72 -229.51,138.67 -296.37,183.3l-296.34 191.9c-185.28,115.87 -147.44,153.17 -328.74,83.69l-248.76 -93.86c-140.49,-62.67 -32.28,-180.23 5.28,-236.55 45.71,-68.56 251.36,-349.5 265.53,-402.59 -99.08,-23.08 -257.45,-141.02 -335.33,-204.3 -74.75,-60.73 -141.86,-132.32 -210.75,-200.41 -37.01,-36.58 -53.51,-52.19 -53.51,-109.23 0,-62.21 59.74,-85.66 111.35,-85.66 65.09,0 156.01,133.81 208.1,177.36 124.75,104.28 164.85,128.03 307.49,215.02 36.31,22.14 56.08,26.97 92.57,44.47 11.15,-41.76 59.36,-93.29 83.95,-130.19 34.57,-51.87 57.63,-101.08 130.19,-101.08 50.91,0 94.23,44.55 94.23,94.22 0,56.31 -215.45,356.11 -248.44,402.56 -91.19,128.4 -177.46,262.57 -265.5,394.05 252.73,58.88 70.04,116.45 404.26,-92.54l849.7 -555.07c64.43,-43.12 244.73,-174.69 304.98,-174.69 60.62,0 172.72,103.11 12.02,209.02 -57.9,38.17 -311.78,189.39 -337.51,227.82 91.89,0 150.18,8.57 239.84,8.57 405.58,0 747.12,-86.08 1108.26,-210.84l133.76 -54.7c-11.45,-49.14 -40.88,-90.49 -56.95,-140.05 -87.59,-270.17 38.25,-430.66 56.95,-510.93 -37.64,-18.06 -88.5,-35.55 -128.4,-51.49 -22.26,-8.89 -47.81,-16.65 -69.7,-24.52 -650.63,-233.91 -1262.75,-242.07 -1931.77,-49.5 -228.14,65.66 -435.8,149.55 -628.26,279.71 -24.69,16.69 -54.32,42.8 -94.23,42.8 -65.17,0 -94.23,-54.8 -94.23,-111.35 0,-52.02 39.7,-74.39 73.58,-97.74 30.79,-21.21 89.11,-50.1 106.3,-73.57 -69.51,-16.2 -198.9,-103.85 -271.24,-139.91 -33.25,-16.57 -59.87,-28.43 -90.17,-46.88 -31.18,-18.98 -55.53,-30.04 -89.7,-47.35 -88.16,-44.66 -101.5,-23.58 -184.4,26.91 -29.71,18.1 -56.38,36.05 -92.57,44.48 34.9,52.12 68.53,58.86 68.53,137.06 0,48.33 -47.89,85.65 -94.23,85.65 -73.01,0 -222.7,-194.53 -222.7,-214.14 0,-131.71 15.42,-107.41 208.38,-211.33 41.79,-22.5 71.53,-34.83 112.16,-59.16 128.87,-77.16 162.9,-66.94 291.23,9.9 46.33,27.74 95.91,47.98 142.12,72.03l134.1 71.48c51.11,25.35 90.16,49.42 139.89,74.25 193.83,96.77 117.48,112.3 280.11,48.84 59.66,-23.28 258.28,-98.87 319.48,-100.23 -43.77,-82.73 -197.01,-305.8 -197.01,-385.46 0,-57.29 154.04,-214.63 195.73,-266.81 98.82,-123.69 176.96,-47.99 282.27,20.08l772.15 478.44c79.44,48.46 103.92,35.53 200.05,48.35 350.41,46.71 666.91,138.46 984.92,274.23 169.84,72.51 520.03,265.1 520.03,490.72z"/>
    <path class="fil0" d="M12092.57 5993.78c0,-41.44 -27.09,-68.52 -68.53,-68.52 -68.06,0 -96.22,77.59 -52.65,121.17 43.58,43.57 121.18,15.41 121.18,-52.65zm-59.96 274.1c-317.7,0 -381.77,-405.42 -120.11,-522.69 213.51,-95.69 454.55,117.78 362.64,354.08 -31.45,80.87 -132.74,168.61 -242.53,168.61z"/>
    <path class="fil0" d="M11133.21 5933.82c0,56.03 7.87,136.14 -20.26,176.74 -36.08,52.08 -128.96,52.08 -165.05,0 -28.13,-40.6 -20.26,-120.71 -20.26,-176.74 0,-155.49 205.57,-155.49 205.57,0z"/>
    <path class="fil0" d="M11501.53 5908.12c0,140.06 25.93,239.84 -111.35,239.84 -109.78,0 -85.65,-150.75 -85.65,-239.84 0,-115.65 197,-116.83 197,0z"/>
    <path class="fil0" d="M10756.32 5908.12c0,140.06 25.93,239.84 -111.35,239.84 -107.35,0 -85.66,-148.92 -85.66,-239.84 0,-115.65 197.01,-116.83 197.01,0z"/>
    <path class="fil0" d="M9360.12 5933.82c0,62.45 -50.04,102.79 -102.78,102.79 -55.09,0 -137.05,-81.96 -137.05,-137.05 0,-84.21 49.68,-102.79 111.35,-102.79 49.3,0 128.48,86.6 128.48,137.05z"/>
   </g>
   <path class="fil1" d="M6685.45 1315.21c-129.12,84.7 -238.5,196.42 -333.48,317.41 -106.26,136.96 -195.62,287.07 -276.2,440.77l-17.15 -32.35 -93.42 50c38.3,71.83 74.16,144.25 110.6,217.11l47.39 -94.78c146.81,-293.1 340.53,-625.98 620.93,-809.91l-58.67 -88.25zm-791.74 448.05c-89.68,-134.04 -191.32,-258.75 -314.72,-363.26 -164.19,-138.26 -343.43,-220.77 -553.87,-261.5l-19.6 104.15c364.32,69.68 598.7,278.49 800.18,579.63l88.01 -59.02zm-1194.99 -652.72c-54.26,0 -109.28,3.96 -163.15,10.29 -315.97,39.15 -599.71,177.21 -826.8,400.09l-1.43 1.42 74.93 74.93c226.14,-222.96 515.63,-354.49 832.44,-377.56 28.09,-1.88 56.53,-3.2 84.69,-3.2l-0.68 -105.97zm-1196.98 668.9c-105.7,167.47 -173.65,357.87 -201.63,553.68 -9.11,66.5 -13.59,131.51 -13.8,198.62 0.4,101.81 7.19,202.11 21.31,302.96l104.9 -15.01c-13.33,-96.05 -19.84,-191 -20.24,-287.95 0.83,-249.04 67.29,-483.7 198.79,-695.29l0.54 -0.86 -89.87 -56.15zm-128.31 1372.88c72.64,267.93 188.17,525.37 321.96,767.99 38.95,70.07 79.37,138.89 121.45,207.13l90.1 -55.79c-174.27,-282.26 -322.31,-578.79 -417.15,-897.49 -4.85,-16.61 -9.65,-33.24 -14.18,-49.93l-102.18 28.09zm619.46 1243.23c203.17,292.27 427.11,567.14 661.31,834.92l79.59 -69.97c-177.27,-201.28 -348.1,-409.4 -508.87,-624.11 -49.44,-66.45 -97.81,-133.41 -145.09,-201.42l-86.94 60.58zm874.13 1072.47c238.98,261.32 485.36,515.02 734.07,767.03l75.37 -74.51c-247.83,-250.76 -493.28,-503.83 -731.23,-764.02l-78.21 71.5zm958.3 992.72c83.4,83.65 166.95,167.14 250.48,250.67 191.35,-191.36 382.81,-382.6 572.51,-575.59l-75.59 -74.27c-164.72,167.6 -330.82,333.79 -496.92,500 -58.5,-58.54 -117.03,-117.04 -175.45,-175.64l-75.03 74.83zm1045.2 -552.94c245.95,-254.58 487.98,-514.3 718.51,-782.98l-80.49 -68.92c-228.92,267.07 -469.9,525.36 -714.28,778.32l76.26 73.58zm923.16 -1028.19c223.73,-276.38 434.34,-565.31 613.43,-872.84l-91.68 -53.14c-175.92,302.51 -384.16,587.58 -604.16,859.35l82.41 66.63zm765.34 -1156.54c157.58,-324.11 273.37,-669.32 300.18,-1030.57l-105.71 -7.32c-25.8,347.34 -138.38,680.18 -289.87,991.76l95.4 46.13zm296.55 -1357.98c-43.15,-369.73 -230.15,-705.37 -519.2,-939.33l-66.48 82.52c267.76,217.15 440.46,526.67 480.47,869.51l105.21 -12.7zm-797.82 -1115.44c-193.97,-92.72 -398.81,-138.48 -613.71,-139.14 -154.24,0.27 -310.99,16.81 -458.68,62.96l31.76 101.1c138.4,-42.78 282.51,-57.83 426.92,-58.09 199.28,0.66 388.39,42.92 568.26,128.89l45.45 -95.72z"/>
   <path class="fil1" d="M6944.1 7230.07c-258.67,-142.36 -474.63,-340 -700.34,-527.28 -44.75,-36.95 -89.74,-73.3 -135.9,-108.49l-64.13 84.36c132.34,101.06 257.19,212.15 385.69,318.06 146.54,120.6 296.61,234.28 463.27,326l51.41 -92.65zm2376.34 -753.72c-144.72,137.9 -292.41,267.89 -450.25,390.61 -31.84,24.47 -63.8,48.49 -96.18,72.23 -18.8,13.61 -37.63,27.09 -56.58,40.48 -30.61,21.35 -61.3,42.22 -92.42,62.82 -23.98,15.64 -48.01,30.99 -72.28,46.17 -18.09,11.13 -36.21,22.2 -54.49,33.02l53.38 91.54 20.16 -12.02 18.35 -11.13 18.45 -11.36 18.53 -11.58 18.61 -11.8 18.69 -12.03 18.78 -12.25 18.86 -12.47 37.97 -25.63c19.29,-13.29 38.46,-26.66 57.59,-40.18l38.81 -27.94 39.17 -28.89 39.51 -29.85c20.07,-15.42 40.02,-30.93 59.93,-46.57 123.1,-97.82 239.97,-199.63 355.17,-306.6 21.14,-19.82 42.2,-39.71 63.19,-59.7l-72.95 -76.87zm-1098.88 787.96c-156.75,68.14 -314.81,115.7 -484.9,135.13 -177.16,18.52 -339.44,3.62 -509.84,-48.05l-0.78 -0.25 -32.07 101c12.79,4.04 25.77,7.72 38.69,11.38 178.11,48.64 346.83,60.62 530.29,39.57 175.26,-21.75 338.78,-71.13 500.52,-141.44l-41.91 -97.34z"/>
   <polygon class="fil1" points="1311.31,8209.69 1311.31,8514.79 1240.7,8514.79 1240.7,8389.7 1102.1,8389.7 1102.1,8514.79 1031.5,8514.79 1031.5,8209.69 1102.1,8209.69 1102.1,8329.99 1240.7,8329.99 1240.7,8209.69 "/>
   <path id="1" class="fil1" d="M1473.45 8276.82c36.32,0 64.22,8.64 83.68,25.93 19.47,17.29 29.21,43.37 29.21,78.23l0 133.81 -63.64 0 0 -29.2c-12.78,21.79 -36.61,32.69 -71.48,32.69 -18.01,0 -33.63,-3.05 -46.85,-9.16 -13.22,-6.1 -23.32,-14.52 -30.29,-25.28 -6.98,-10.75 -10.46,-22.95 -10.46,-36.61 0,-21.79 8.2,-38.93 24.62,-51.43 16.42,-12.49 41.77,-18.74 76.06,-18.74l54.04 0c0,-14.82 -4.5,-26.22 -13.51,-34.21 -9.01,-7.99 -22.52,-11.99 -40.53,-11.99 -12.5,0 -24.77,1.96 -36.83,5.89 -12.06,3.92 -22.3,9.22 -30.73,15.9l-24.41 -47.5c12.79,-9.01 28.12,-15.99 45.99,-20.92 17.87,-4.94 36.24,-7.41 55.13,-7.41zm-5.23 195.69c11.62,0 21.94,-2.69 30.95,-8.06 9,-5.38 15.4,-13.29 19.17,-23.75l0 -23.98 -46.63 0c-27.9,0 -41.84,9.16 -41.84,27.46 0,8.72 3.41,15.62 10.24,20.71 6.83,5.08 16.2,7.62 28.11,7.62z"/>
   <path id="2" class="fil1" d="M1763.72 8518.28c-24.99,0 -47.43,-5.16 -67.34,-15.48 -19.9,-10.31 -35.45,-24.62 -46.63,-42.93 -11.19,-18.3 -16.78,-39.08 -16.78,-62.32 0,-23.25 5.59,-44.02 16.78,-62.33 11.18,-18.31 26.73,-32.62 46.63,-42.93 19.91,-10.32 42.35,-15.47 67.34,-15.47 24.7,0 46.27,5.15 64.73,15.47 18.45,10.31 31.89,25.06 40.31,44.24l-52.74 28.33c-12.2,-21.5 -29.78,-32.26 -52.73,-32.26 -17.73,0 -32.4,5.82 -44.02,17.44 -11.63,11.62 -17.44,27.46 -17.44,47.51 0,20.05 5.81,35.88 17.44,47.5 11.62,11.63 26.29,17.44 44.02,17.44 23.24,0 40.82,-10.75 52.73,-32.25l52.74 28.76c-8.42,18.6 -21.86,33.13 -40.31,43.59 -18.46,10.46 -40.03,15.69 -64.73,15.69z"/>
   <path id="3" class="fil1" d="M2134.63 8398.42c0,0.87 -0.43,6.97 -1.3,18.3l-177.39 0c3.19,14.53 10.75,26.01 22.66,34.44 11.91,8.42 26.73,12.64 44.46,12.64 12.2,0 23.02,-1.82 32.47,-5.45 9.44,-3.63 18.23,-9.37 26.37,-17.22l36.17 39.23c-22.08,25.28 -54.33,37.92 -96.76,37.92 -26.44,0 -49.83,-5.16 -70.17,-15.48 -20.34,-10.31 -36.03,-24.62 -47.07,-42.93 -11.04,-18.3 -16.56,-39.08 -16.56,-62.32 0,-22.96 5.45,-43.66 16.34,-62.11 10.9,-18.45 25.86,-32.84 44.89,-43.15 19.04,-10.32 40.32,-15.47 63.86,-15.47 22.95,0 43.73,4.94 62.32,14.81 18.6,9.88 33.2,24.05 43.81,42.5 10.6,18.45 15.9,39.88 15.9,64.29zm-121.6 -70.17c-15.4,0 -28.33,4.35 -38.79,13.07 -10.46,8.72 -16.85,20.63 -19.18,35.74l115.5 0c-2.32,-14.82 -8.71,-26.66 -19.17,-35.52 -10.46,-8.86 -23.25,-13.29 -38.36,-13.29z"/>
   <path id="4" class="fil1" d="M2565.58 8280.3l-105.92 248.87c-10.75,27.03 -24.04,46.06 -39.88,57.1 -15.83,11.04 -34.94,16.56 -57.31,16.56 -12.2,0 -24.26,-1.89 -36.18,-5.66 -11.91,-3.78 -21.64,-9.01 -29.2,-15.69l24.84 -48.38c5.24,4.64 11.26,8.28 18.09,10.89 6.83,2.62 13.59,3.92 20.27,3.92 9.3,0 16.85,-2.25 22.66,-6.75 5.82,-4.5 11.05,-11.99 15.69,-22.45l0.88 -2.18 -101.56 -236.23 70.18 0 65.81 159.09 66.25 -159.09 65.38 0z"/>
   <path id="5" class="fil1" d="M2680.2 8276.82c36.32,0 64.22,8.64 83.68,25.93 19.47,17.29 29.21,43.37 29.21,78.23l0 133.81 -63.64 0 0 -29.2c-12.78,21.79 -36.61,32.69 -71.48,32.69 -18.01,0 -33.63,-3.05 -46.85,-9.16 -13.22,-6.1 -23.32,-14.52 -30.29,-25.28 -6.98,-10.75 -10.46,-22.95 -10.46,-36.61 0,-21.79 8.2,-38.93 24.62,-51.43 16.42,-12.49 41.77,-18.74 76.06,-18.74l54.04 0c0,-14.82 -4.5,-26.22 -13.51,-34.21 -9.01,-7.99 -22.52,-11.99 -40.53,-11.99 -12.5,0 -24.77,1.96 -36.83,5.89 -12.06,3.92 -22.3,9.22 -30.73,15.9l-24.41 -47.5c12.79,-9.01 28.12,-15.99 45.99,-20.92 17.87,-4.94 36.24,-7.41 55.13,-7.41zm-5.23 195.69c11.62,0 21.94,-2.69 30.95,-8.06 9,-5.38 15.4,-13.29 19.17,-23.75l0 -23.98 -46.63 0c-27.9,0 -41.84,9.16 -41.84,27.46 0,8.72 3.41,15.62 10.24,20.71 6.83,5.08 16.2,7.62 28.11,7.62z"/>
   <path id="6" class="fil1" d="M3101.99 8276.82c36.32,0 64.22,8.64 83.68,25.93 19.47,17.29 29.21,43.37 29.21,78.23l0 133.81 -63.64 0 0 -29.2c-12.78,21.79 -36.61,32.69 -71.48,32.69 -18.01,0 -33.63,-3.05 -46.85,-9.16 -13.22,-6.1 -23.32,-14.52 -30.29,-25.28 -6.98,-10.75 -10.46,-22.95 -10.46,-36.61 0,-21.79 8.2,-38.93 24.62,-51.43 16.42,-12.49 41.77,-18.74 76.06,-18.74l54.04 0c0,-14.82 -4.5,-26.22 -13.51,-34.21 -9.01,-7.99 -22.52,-11.99 -40.53,-11.99 -12.5,0 -24.77,1.96 -36.83,5.89 -12.06,3.92 -22.3,9.22 -30.73,15.9l-24.41 -47.5c12.79,-9.01 28.12,-15.99 45.99,-20.92 17.87,-4.94 36.24,-7.41 55.13,-7.41zm-5.23 195.69c11.62,0 21.94,-2.69 30.95,-8.06 9,-5.38 15.4,-13.29 19.17,-23.75l0 -23.98 -46.63 0c-27.9,0 -41.84,9.16 -41.84,27.46 0,8.72 3.41,15.62 10.24,20.71 6.83,5.08 16.2,7.62 28.11,7.62z"/>
   <polygon id="7" class="fil1" points="3276.33,8191.39 3344.32,8191.39 3344.32,8514.79 3276.33,8514.79 "/>
   <path id="8" class="fil1" d="M3649.42 8280.3l0 195.26c0,43.01 -11.19,74.97 -33.56,95.89 -22.38,20.92 -55.06,31.38 -98.07,31.38 -22.66,0 -44.16,-2.76 -64.5,-8.28 -20.34,-5.52 -37.2,-13.51 -50.56,-23.97l27.02 -48.82c9.88,8.14 22.37,14.6 37.48,19.4 15.11,4.79 30.22,7.19 45.33,7.19 23.54,0 40.9,-5.3 52.09,-15.91 11.18,-10.6 16.78,-26.66 16.78,-48.16l0 -10.02c-17.73,19.46 -42.43,29.2 -74.1,29.2 -21.5,0 -41.19,-4.72 -59.06,-14.17 -17.87,-9.44 -32.03,-22.73 -42.49,-39.88 -10.46,-17.14 -15.69,-36.9 -15.69,-59.27 0,-22.38 5.23,-42.14 15.69,-59.28 10.46,-17.14 24.62,-30.44 42.49,-39.88 17.87,-9.44 37.56,-14.16 59.06,-14.16 34,0 59.86,11.18 77.58,33.56l0 -30.08 64.51 0zm-128.58 167.37c18.02,0 32.76,-5.3 44.24,-15.91 11.48,-10.61 17.22,-24.48 17.22,-41.62 0,-17.15 -5.74,-31.02 -17.22,-41.63 -11.48,-10.6 -26.22,-15.91 -44.24,-15.91 -18.01,0 -32.83,5.31 -44.45,15.91 -11.63,10.61 -17.44,24.48 -17.44,41.63 0,17.14 5.81,31.01 17.44,41.62 11.62,10.61 26.44,15.91 44.45,15.91z"/>
   <path id="9" class="fil1" d="M3948.85 8280.3l0 234.49 -64.5 0 0 -27.89c-9.01,10.17 -19.76,17.94 -32.26,23.31 -12.49,5.38 -26,8.07 -40.53,8.07 -30.8,0 -55.21,-8.87 -73.22,-26.59 -18.02,-17.72 -27.03,-44.02 -27.03,-78.89l0 -132.5 68 0 0 122.48c0,37.77 15.83,56.66 47.5,56.66 16.28,0 29.35,-5.31 39.23,-15.91 9.88,-10.61 14.82,-26.37 14.82,-47.29l0 -115.94 67.99 0z"/>
   <path id="10" class="fil1" d="M4154.57 8276.82c29.06,0 52.52,8.71 70.39,26.15 17.87,17.43 26.81,43.29 26.81,77.58l0 134.24 -67.99 0 0 -123.78c0,-18.6 -4.07,-32.47 -12.21,-41.63 -8.13,-9.15 -19.9,-13.72 -35.3,-13.72 -17.14,0 -30.8,5.3 -40.97,15.9 -10.17,10.61 -15.26,26.37 -15.26,47.29l0 115.94 -67.99 0 0 -234.49 64.94 0 0 27.46c9.01,-9.88 20.2,-17.51 33.56,-22.88 13.37,-5.38 28.04,-8.06 44.02,-8.06z"/>
   <path id="11" class="fil1" d="M4427.42 8518.28c-24.7,0 -46.86,-5.16 -66.47,-15.48 -19.61,-10.31 -34.94,-24.62 -45.98,-42.93 -11.04,-18.3 -16.56,-39.08 -16.56,-62.32 0,-23.25 5.52,-44.02 16.56,-62.33 11.04,-18.31 26.37,-32.62 45.98,-42.93 19.61,-10.32 41.77,-15.47 66.47,-15.47 24.7,0 46.78,5.15 66.25,15.47 19.47,10.31 34.72,24.62 45.76,42.93 11.04,18.31 16.56,39.08 16.56,62.33 0,23.24 -5.52,44.02 -16.56,62.32 -11.04,18.31 -26.29,32.62 -45.76,42.93 -19.47,10.32 -41.55,15.48 -66.25,15.48zm0 -55.79c17.43,0 31.74,-5.89 42.93,-17.65 11.19,-11.77 16.78,-27.54 16.78,-47.29 0,-19.76 -5.59,-35.53 -16.78,-47.29 -11.19,-11.77 -25.5,-17.66 -42.93,-17.66 -17.44,0 -31.82,5.89 -43.15,17.66 -11.33,11.76 -17,27.53 -17,47.29 0,19.75 5.67,35.52 17,47.29 11.33,11.76 25.71,17.65 43.15,17.65z"/>
   <path id="12" class="fil1" d="M4680.21 8518.28c-19.47,0 -38.5,-2.4 -57.1,-7.19 -18.59,-4.8 -33.41,-10.83 -44.45,-18.09l22.66 -48.82c10.46,6.69 23.1,12.13 37.92,16.35 14.82,4.21 29.35,6.32 43.59,6.32 28.76,0 43.14,-7.12 43.14,-21.36 0,-6.68 -3.92,-11.48 -11.76,-14.38 -7.85,-2.91 -19.91,-5.38 -36.18,-7.41 -19.18,-2.91 -35.01,-6.25 -47.51,-10.03 -12.49,-3.77 -23.31,-10.46 -32.47,-20.05 -9.15,-9.59 -13.73,-23.24 -13.73,-40.97 0,-14.82 4.29,-27.96 12.86,-39.44 8.57,-11.48 21.07,-20.41 37.48,-26.81 16.42,-6.39 35.82,-9.58 58.19,-9.58 16.56,0 33.05,1.81 49.47,5.44 16.42,3.64 30,8.65 40.75,15.04l-22.66 48.38c-20.63,-11.62 -43.15,-17.43 -67.56,-17.43 -14.53,0 -25.42,2.03 -32.69,6.1 -7.26,4.07 -10.9,9.3 -10.9,15.69 0,7.26 3.93,12.35 11.77,15.25 7.85,2.91 20.34,5.67 37.49,8.28 19.17,3.2 34.86,6.61 47.07,10.25 12.2,3.63 22.81,10.24 31.81,19.83 9.01,9.59 13.52,22.95 13.52,40.1 0,14.52 -4.36,27.45 -13.08,38.79 -8.72,11.33 -21.43,20.12 -38.14,26.37 -16.7,6.24 -36.54,9.37 -59.49,9.37z"/>
   <path id="13" class="fil1" d="M5080.21 8276.82c36.32,0 64.22,8.64 83.68,25.93 19.47,17.29 29.21,43.37 29.21,78.23l0 133.81 -63.64 0 0 -29.2c-12.78,21.79 -36.61,32.69 -71.48,32.69 -18.01,0 -33.63,-3.05 -46.85,-9.16 -13.22,-6.1 -23.32,-14.52 -30.29,-25.28 -6.98,-10.75 -10.46,-22.95 -10.46,-36.61 0,-21.79 8.2,-38.93 24.62,-51.43 16.42,-12.49 41.77,-18.74 76.06,-18.74l54.04 0c0,-14.82 -4.5,-26.22 -13.51,-34.21 -9.01,-7.99 -22.52,-11.99 -40.53,-11.99 -12.5,0 -24.77,1.96 -36.83,5.89 -12.06,3.92 -22.3,9.22 -30.73,15.9l-24.41 -47.5c12.79,-9.01 28.12,-15.99 45.99,-20.92 17.87,-4.94 36.24,-7.41 55.13,-7.41zm-5.23 195.69c11.62,0 21.94,-2.69 30.95,-8.06 9,-5.38 15.4,-13.29 19.17,-23.75l0 -23.98 -46.63 0c-27.9,0 -41.84,9.16 -41.84,27.46 0,8.72 3.41,15.62 10.24,20.71 6.83,5.08 16.2,7.62 28.11,7.62z"/>
   <path id="14" class="fil1" d="M5397.07 8276.82c29.06,0 52.52,8.71 70.39,26.15 17.87,17.43 26.81,43.29 26.81,77.58l0 134.24 -67.99 0 0 -123.78c0,-18.6 -4.07,-32.47 -12.21,-41.63 -8.13,-9.15 -19.9,-13.72 -35.3,-13.72 -17.14,0 -30.8,5.3 -40.97,15.9 -10.17,10.61 -15.26,26.37 -15.26,47.29l0 115.94 -67.99 0 0 -234.49 64.94 0 0 27.46c9.01,-9.88 20.2,-17.51 33.56,-22.88 13.37,-5.38 28.04,-8.06 44.02,-8.06zm10.46 -25.28c-7.84,0 -14.74,-1.53 -20.7,-4.58 -5.95,-3.05 -12.57,-7.19 -19.83,-12.42 -4.65,-3.49 -8.5,-6.1 -11.55,-7.85 -3.05,-1.74 -6.03,-2.61 -8.93,-2.61 -6.11,0 -11.05,2.1 -14.82,6.32 -3.78,4.21 -5.81,10.24 -6.11,18.09l-34.43 0c0.58,-19.47 5.45,-34.94 14.6,-46.42 9.16,-11.48 21.29,-17.22 36.4,-17.22 7.55,0 14.31,1.53 20.26,4.58 5.96,3.05 12.72,7.33 20.27,12.86 4.65,3.48 8.5,6.1 11.55,7.84 3.05,1.74 6.03,2.62 8.94,2.62 5.81,0 10.67,-2.11 14.6,-6.32 3.92,-4.22 6.03,-9.96 6.32,-17.22l34.43 0c-0.58,18.89 -5.45,34 -14.6,45.33 -9.15,11.33 -21.29,17 -36.4,17z"/>
   <path id="15" class="fil1" d="M5669.92 8518.28c-24.7,0 -46.86,-5.16 -66.47,-15.48 -19.61,-10.31 -34.94,-24.62 -45.98,-42.93 -11.04,-18.3 -16.56,-39.08 -16.56,-62.32 0,-23.25 5.52,-44.02 16.56,-62.33 11.04,-18.31 26.37,-32.62 45.98,-42.93 19.61,-10.32 41.77,-15.47 66.47,-15.47 24.7,0 46.78,5.15 66.25,15.47 19.47,10.31 34.72,24.62 45.76,42.93 11.04,18.31 16.56,39.08 16.56,62.33 0,23.24 -5.52,44.02 -16.56,62.32 -11.04,18.31 -26.29,32.62 -45.76,42.93 -19.47,10.32 -41.55,15.48 -66.25,15.48zm0 -55.79c17.43,0 31.74,-5.89 42.93,-17.65 11.19,-11.77 16.78,-27.54 16.78,-47.29 0,-19.76 -5.59,-35.53 -16.78,-47.29 -11.19,-11.77 -25.5,-17.66 -42.93,-17.66 -17.44,0 -31.82,5.89 -43.15,17.66 -11.33,11.76 -17,27.53 -17,47.29 0,19.75 5.67,35.52 17,47.29 11.33,11.76 25.71,17.65 43.15,17.65z"/>
   <path id="16" class="fil1" d="M5922.71 8518.28c-19.47,0 -38.5,-2.4 -57.1,-7.19 -18.59,-4.8 -33.41,-10.83 -44.45,-18.09l22.66 -48.82c10.46,6.69 23.1,12.13 37.92,16.35 14.82,4.21 29.35,6.32 43.59,6.32 28.76,0 43.14,-7.12 43.14,-21.36 0,-6.68 -3.92,-11.48 -11.76,-14.38 -7.85,-2.91 -19.91,-5.38 -36.18,-7.41 -19.18,-2.91 -35.01,-6.25 -47.51,-10.03 -12.49,-3.77 -23.31,-10.46 -32.47,-20.05 -9.15,-9.59 -13.73,-23.24 -13.73,-40.97 0,-14.82 4.29,-27.96 12.86,-39.44 8.57,-11.48 21.07,-20.41 37.48,-26.81 16.42,-6.39 35.82,-9.58 58.19,-9.58 16.56,0 33.05,1.81 49.47,5.44 16.42,3.64 30,8.65 40.75,15.04l-22.66 48.38c-20.63,-11.62 -43.15,-17.43 -67.56,-17.43 -14.53,0 -25.42,2.03 -32.69,6.1 -7.26,4.07 -10.9,9.3 -10.9,15.69 0,7.26 3.93,12.35 11.77,15.25 7.85,2.91 20.34,5.67 37.49,8.28 19.17,3.2 34.86,6.61 47.07,10.25 12.2,3.63 22.81,10.24 31.81,19.83 9.01,9.59 13.52,22.95 13.52,40.1 0,14.52 -4.36,27.45 -13.08,38.79 -8.72,11.33 -21.43,20.12 -38.14,26.37 -16.7,6.24 -36.54,9.37 -59.49,9.37z"/>
   <path id="17" class="fil1" d="M6464.36 8280.3l0 234.49 -64.5 0 0 -27.89c-9.01,10.17 -19.76,17.94 -32.26,23.31 -12.49,5.38 -26,8.07 -40.53,8.07 -30.8,0 -55.21,-8.87 -73.22,-26.59 -18.02,-17.72 -27.03,-44.02 -27.03,-78.89l0 -132.5 68 0 0 122.48c0,37.77 15.83,56.66 47.5,56.66 16.28,0 29.35,-5.31 39.23,-15.91 9.88,-10.61 14.82,-26.37 14.82,-47.29l0 -115.94 67.99 0z"/>
   <path id="18" class="fil1" d="M6670.08 8276.82c29.06,0 52.52,8.71 70.39,26.15 17.87,17.43 26.81,43.29 26.81,77.58l0 134.24 -67.99 0 0 -123.78c0,-18.6 -4.07,-32.47 -12.21,-41.63 -8.13,-9.15 -19.9,-13.72 -35.3,-13.72 -17.14,0 -30.8,5.3 -40.97,15.9 -10.17,10.61 -15.26,26.37 -15.26,47.29l0 115.94 -67.99 0 0 -234.49 64.94 0 0 27.46c9.01,-9.88 20.2,-17.51 33.56,-22.88 13.37,-5.38 28.04,-8.06 44.02,-8.06z"/>
   <path id="19" class="fil1" d="M6923.31 8276.82c36.32,0 64.22,8.64 83.68,25.93 19.47,17.29 29.21,43.37 29.21,78.23l0 133.81 -63.64 0 0 -29.2c-12.78,21.79 -36.61,32.69 -71.48,32.69 -18.01,0 -33.63,-3.05 -46.85,-9.16 -13.22,-6.1 -23.32,-14.52 -30.29,-25.28 -6.98,-10.75 -10.46,-22.95 -10.46,-36.61 0,-21.79 8.2,-38.93 24.62,-51.43 16.42,-12.49 41.77,-18.74 76.06,-18.74l54.04 0c0,-14.82 -4.5,-26.22 -13.51,-34.21 -9.01,-7.99 -22.52,-11.99 -40.53,-11.99 -12.5,0 -24.77,1.96 -36.83,5.89 -12.06,3.92 -22.3,9.22 -30.73,15.9l-24.41 -47.5c12.79,-9.01 28.12,-15.99 45.99,-20.92 17.87,-4.94 36.24,-7.41 55.13,-7.41zm-5.23 195.69c11.62,0 21.94,-2.69 30.95,-8.06 9,-5.38 15.4,-13.29 19.17,-23.75l0 -23.98 -46.63 0c-27.9,0 -41.84,9.16 -41.84,27.46 0,8.72 3.41,15.62 10.24,20.71 6.83,5.08 16.2,7.62 28.11,7.62z"/>
   <path id="20" class="fil1" d="M7393.04 8276.82c29.06,0 52.52,8.71 70.39,26.15 17.87,17.43 26.81,43.29 26.81,77.58l0 134.24 -67.99 0 0 -123.78c0,-18.6 -4.07,-32.47 -12.21,-41.63 -8.13,-9.15 -19.9,-13.72 -35.3,-13.72 -17.14,0 -30.8,5.3 -40.97,15.9 -10.17,10.61 -15.26,26.37 -15.26,47.29l0 115.94 -67.99 0 0 -323.4 67.99 0 0 113.32c9.01,-9.01 19.91,-15.91 32.69,-20.7 12.79,-4.8 26.73,-7.19 41.84,-7.19z"/>
   <path id="21" class="fil1" d="M7784 8398.42c0,0.87 -0.43,6.97 -1.3,18.3l-177.39 0c3.19,14.53 10.75,26.01 22.66,34.44 11.91,8.42 26.73,12.64 44.46,12.64 12.2,0 23.02,-1.82 32.47,-5.45 9.44,-3.63 18.23,-9.37 26.37,-17.22l36.17 39.23c-22.08,25.28 -54.33,37.92 -96.76,37.92 -26.44,0 -49.83,-5.16 -70.17,-15.48 -20.34,-10.31 -36.03,-24.62 -47.07,-42.93 -11.04,-18.3 -16.56,-39.08 -16.56,-62.32 0,-22.96 5.45,-43.66 16.34,-62.11 10.9,-18.45 25.86,-32.84 44.89,-43.15 19.04,-10.32 40.32,-15.47 63.86,-15.47 22.95,0 43.73,4.94 62.32,14.81 18.6,9.88 33.2,24.05 43.81,42.5 10.6,18.45 15.9,39.88 15.9,64.29zm-121.6 -70.17c-15.4,0 -28.33,4.35 -38.79,13.07 -10.46,8.72 -16.85,20.63 -19.18,35.74l115.5 0c-2.32,-14.82 -8.71,-26.66 -19.17,-35.52 -10.46,-8.86 -23.25,-13.29 -38.36,-13.29z"/>
   <path id="22" class="fil1" d="M7894.27 8311.25c8.14,-11.33 19.11,-19.91 32.91,-25.72 13.8,-5.81 29.71,-8.71 47.73,-8.71l0 62.76c-7.56,-0.58 -12.64,-0.87 -15.26,-0.87 -19.47,0 -34.72,5.44 -45.76,16.34 -11.05,10.9 -16.57,27.24 -16.57,49.03l0 110.71 -67.99 0 0 -234.49 64.94 0 0 30.95z"/>
   <path id="23" class="fil1" d="M8315.74 8276.82c29.35,0 52.67,8.64 69.96,25.93 17.28,17.29 25.93,43.22 25.93,77.8l0 134.24 -67.99 0 0 -123.78c0,-18.6 -3.85,-32.47 -11.55,-41.63 -7.7,-9.15 -18.67,-13.72 -32.91,-13.72 -15.98,0 -28.62,5.15 -37.92,15.47 -9.3,10.31 -13.95,25.64 -13.95,45.98l0 117.68 -67.99 0 0 -123.78c0,-36.9 -14.82,-55.35 -44.46,-55.35 -15.69,0 -28.18,5.15 -37.48,15.47 -9.3,10.31 -13.95,25.64 -13.95,45.98l0 117.68 -67.99 0 0 -234.49 64.94 0 0 27.03c8.72,-9.88 19.4,-17.44 32.04,-22.67 12.64,-5.23 26.51,-7.84 41.62,-7.84 16.56,0 31.53,3.26 44.89,9.8 13.37,6.54 24.12,16.06 32.26,28.55 9.59,-12.2 21.72,-21.65 36.39,-28.33 14.67,-6.68 30.73,-10.02 48.16,-10.02z"/>
   <path id="24" class="fil1" d="M8586.84 8518.28c-24.7,0 -46.86,-5.16 -66.47,-15.48 -19.61,-10.31 -34.94,-24.62 -45.98,-42.93 -11.04,-18.3 -16.56,-39.08 -16.56,-62.32 0,-23.25 5.52,-44.02 16.56,-62.33 11.04,-18.31 26.37,-32.62 45.98,-42.93 19.61,-10.32 41.77,-15.47 66.47,-15.47 24.7,0 46.78,5.15 66.25,15.47 19.47,10.31 34.72,24.62 45.76,42.93 11.04,18.31 16.56,39.08 16.56,62.33 0,23.24 -5.52,44.02 -16.56,62.32 -11.04,18.31 -26.29,32.62 -45.76,42.93 -19.47,10.32 -41.55,15.48 -66.25,15.48zm0 -55.79c17.43,0 31.74,-5.89 42.93,-17.65 11.19,-11.77 16.78,-27.54 16.78,-47.29 0,-19.76 -5.59,-35.53 -16.78,-47.29 -11.19,-11.77 -25.5,-17.66 -42.93,-17.66 -17.44,0 -31.82,5.89 -43.15,17.66 -11.33,11.76 -17,27.53 -17,47.29 0,19.75 5.67,35.52 17,47.29 11.33,11.76 25.71,17.65 43.15,17.65z"/>
   <path id="25" class="fil1" d="M8839.63 8518.28c-19.47,0 -38.5,-2.4 -57.1,-7.19 -18.59,-4.8 -33.41,-10.83 -44.45,-18.09l22.66 -48.82c10.46,6.69 23.1,12.13 37.92,16.35 14.82,4.21 29.35,6.32 43.59,6.32 28.76,0 43.14,-7.12 43.14,-21.36 0,-6.68 -3.92,-11.48 -11.76,-14.38 -7.85,-2.91 -19.91,-5.38 -36.18,-7.41 -19.18,-2.91 -35.01,-6.25 -47.51,-10.03 -12.49,-3.77 -23.31,-10.46 -32.47,-20.05 -9.15,-9.59 -13.73,-23.24 -13.73,-40.97 0,-14.82 4.29,-27.96 12.86,-39.44 8.57,-11.48 21.07,-20.41 37.48,-26.81 16.42,-6.39 35.82,-9.58 58.19,-9.58 16.56,0 33.05,1.81 49.47,5.44 16.42,3.64 30,8.65 40.75,15.04l-22.66 48.38c-20.63,-11.62 -43.15,-17.43 -67.56,-17.43 -14.53,0 -25.42,2.03 -32.69,6.1 -7.26,4.07 -10.9,9.3 -10.9,15.69 0,7.26 3.93,12.35 11.77,15.25 7.85,2.91 20.34,5.67 37.49,8.28 19.17,3.2 34.86,6.61 47.07,10.25 12.2,3.63 22.81,10.24 31.81,19.83 9.01,9.59 13.52,22.95 13.52,40.1 0,14.52 -4.36,27.45 -13.08,38.79 -8.72,11.33 -21.43,20.12 -38.14,26.37 -16.7,6.24 -36.54,9.37 -59.49,9.37z"/>
   <path id="26" class="fil1" d="M9086.76 8276.82c36.32,0 64.22,8.64 83.68,25.93 19.47,17.29 29.21,43.37 29.21,78.23l0 133.81 -63.64 0 0 -29.2c-12.78,21.79 -36.61,32.69 -71.48,32.69 -18.01,0 -33.63,-3.05 -46.85,-9.16 -13.22,-6.1 -23.32,-14.52 -30.29,-25.28 -6.98,-10.75 -10.46,-22.95 -10.46,-36.61 0,-21.79 8.2,-38.93 24.62,-51.43 16.42,-12.49 41.77,-18.74 76.06,-18.74l54.04 0c0,-14.82 -4.5,-26.22 -13.51,-34.21 -9.01,-7.99 -22.52,-11.99 -40.53,-11.99 -12.5,0 -24.77,1.96 -36.83,5.89 -12.06,3.92 -22.3,9.22 -30.73,15.9l-24.41 -47.5c12.79,-9.01 28.12,-15.99 45.99,-20.92 17.87,-4.94 36.24,-7.41 55.13,-7.41zm-5.23 195.69c11.62,0 21.94,-2.69 30.95,-8.06 9,-5.38 15.4,-13.29 19.17,-23.75l0 -23.98 -46.63 0c-27.9,0 -41.84,9.16 -41.84,27.46 0,8.72 3.41,15.62 10.24,20.71 6.83,5.08 16.2,7.62 28.11,7.62z"/>
   <path id="27" class="fil1" d="M9396.54 8602.83c-23.83,0 -41.99,-4.36 -54.48,-13.07l18.3 -49.25c7.85,5.52 17.44,8.28 28.77,8.28 8.71,0 15.54,-2.84 20.48,-8.5 4.94,-5.67 7.41,-14.17 7.41,-25.5l0 -234.49 67.99 0 0 234.05c0,27.32 -7.77,48.89 -23.31,64.73 -15.55,15.83 -37.27,23.75 -65.16,23.75zm54.48 -355.22c-12.5,0 -22.67,-3.63 -30.51,-10.89 -7.85,-7.27 -11.77,-16.27 -11.77,-27.03 0,-10.75 3.92,-19.75 11.77,-27.02 7.84,-7.26 18.01,-10.89 30.51,-10.89 12.49,0 22.66,3.48 30.51,10.46 7.84,6.97 11.77,15.69 11.77,26.15 0,11.33 -3.93,20.7 -11.77,28.11 -7.85,7.41 -18.02,11.11 -30.51,11.11z"/>
   <path id="28" class="fil1" d="M9784.01 8280.3l0 234.49 -64.5 0 0 -27.89c-9.01,10.17 -19.76,17.94 -32.26,23.31 -12.49,5.38 -26,8.07 -40.53,8.07 -30.8,0 -55.21,-8.87 -73.22,-26.59 -18.02,-17.72 -27.03,-44.02 -27.03,-78.89l0 -132.5 68 0 0 122.48c0,37.77 15.83,56.66 47.5,56.66 16.28,0 29.35,-5.31 39.23,-15.91 9.88,-10.61 14.82,-26.37 14.82,-47.29l0 -115.94 67.99 0z"/>
   <path id="29" class="fil1" d="M10089.11 8280.3l0 195.26c0,43.01 -11.19,74.97 -33.56,95.89 -22.38,20.92 -55.06,31.38 -98.07,31.38 -22.66,0 -44.16,-2.76 -64.5,-8.28 -20.34,-5.52 -37.2,-13.51 -50.56,-23.97l27.02 -48.82c9.88,8.14 22.37,14.6 37.48,19.4 15.11,4.79 30.22,7.19 45.33,7.19 23.54,0 40.9,-5.3 52.09,-15.91 11.18,-10.6 16.78,-26.66 16.78,-48.16l0 -10.02c-17.73,19.46 -42.43,29.2 -74.1,29.2 -21.5,0 -41.19,-4.72 -59.06,-14.17 -17.87,-9.44 -32.03,-22.73 -42.49,-39.88 -10.46,-17.14 -15.69,-36.9 -15.69,-59.27 0,-22.38 5.23,-42.14 15.69,-59.28 10.46,-17.14 24.62,-30.44 42.49,-39.88 17.87,-9.44 37.56,-14.16 59.06,-14.16 34,0 59.86,11.18 77.58,33.56l0 -30.08 64.51 0zm-128.58 167.37c18.02,0 32.76,-5.3 44.24,-15.91 11.48,-10.61 17.22,-24.48 17.22,-41.62 0,-17.15 -5.74,-31.02 -17.22,-41.63 -11.48,-10.6 -26.22,-15.91 -44.24,-15.91 -18.01,0 -32.83,5.31 -44.45,15.91 -11.63,10.61 -17.44,24.48 -17.44,41.63 0,17.14 5.81,31.01 17.44,41.62 11.62,10.61 26.44,15.91 44.45,15.91z"/>
   <path id="30" class="fil1" d="M10246.89 8276.82c36.32,0 64.22,8.64 83.68,25.93 19.47,17.29 29.21,43.37 29.21,78.23l0 133.81 -63.64 0 0 -29.2c-12.78,21.79 -36.61,32.69 -71.48,32.69 -18.01,0 -33.63,-3.05 -46.85,-9.16 -13.22,-6.1 -23.32,-14.52 -30.29,-25.28 -6.98,-10.75 -10.46,-22.95 -10.46,-36.61 0,-21.79 8.2,-38.93 24.62,-51.43 16.42,-12.49 41.77,-18.74 76.06,-18.74l54.04 0c0,-14.82 -4.5,-26.22 -13.51,-34.21 -9.01,-7.99 -22.52,-11.99 -40.53,-11.99 -12.5,0 -24.77,1.96 -36.83,5.89 -12.06,3.92 -22.3,9.22 -30.73,15.9l-24.41 -47.5c12.79,-9.01 28.12,-15.99 45.99,-20.92 17.87,-4.94 36.24,-7.41 55.13,-7.41zm-5.23 195.69c11.62,0 21.94,-2.69 30.95,-8.06 9,-5.38 15.4,-13.29 19.17,-23.75l0 -23.98 -46.63 0c-27.9,0 -41.84,9.16 -41.84,27.46 0,8.72 3.41,15.62 10.24,20.71 6.83,5.08 16.2,7.62 28.11,7.62z"/>
   <path id="31" class="fil1" d="M10662.69 8191.39l0 323.4 -64.94 0 0 -27.02c-16.86,20.34 -41.27,30.51 -73.23,30.51 -22.08,0 -42.06,-4.94 -59.93,-14.82 -17.87,-9.88 -31.89,-23.97 -42.06,-42.28 -10.17,-18.31 -15.25,-39.52 -15.25,-63.63 0,-24.12 5.08,-45.33 15.25,-63.64 10.17,-18.3 24.19,-32.4 42.06,-42.28 17.87,-9.87 37.85,-14.81 59.93,-14.81 29.93,0 53.32,9.44 70.17,28.33l0 -113.76 68 0zm-126.4 271.1c17.14,0 31.38,-5.89 42.71,-17.65 11.34,-11.77 17,-27.54 17,-47.29 0,-19.76 -5.66,-35.53 -17,-47.29 -11.33,-11.77 -25.57,-17.66 -42.71,-17.66 -17.43,0 -31.82,5.89 -43.15,17.66 -11.33,11.76 -17,27.53 -17,47.29 0,19.75 5.67,35.52 17,47.29 11.33,11.76 25.72,17.65 43.15,17.65z"/>
   <path id="32" class="fil1" d="M10820.03 8276.82c36.32,0 64.22,8.64 83.68,25.93 19.47,17.29 29.21,43.37 29.21,78.23l0 133.81 -63.64 0 0 -29.2c-12.78,21.79 -36.61,32.69 -71.48,32.69 -18.01,0 -33.63,-3.05 -46.85,-9.16 -13.22,-6.1 -23.32,-14.52 -30.29,-25.28 -6.98,-10.75 -10.46,-22.95 -10.46,-36.61 0,-21.79 8.2,-38.93 24.62,-51.43 16.42,-12.49 41.77,-18.74 76.06,-18.74l54.04 0c0,-14.82 -4.5,-26.22 -13.51,-34.21 -9.01,-7.99 -22.52,-11.99 -40.53,-11.99 -12.5,0 -24.77,1.96 -36.83,5.89 -12.06,3.92 -22.3,9.22 -30.73,15.9l-24.41 -47.5c12.79,-9.01 28.12,-15.99 45.99,-20.92 17.87,-4.94 36.24,-7.41 55.13,-7.41zm-5.23 195.69c11.62,0 21.94,-2.69 30.95,-8.06 9,-5.38 15.4,-13.29 19.17,-23.75l0 -23.98 -46.63 0c-27.9,0 -41.84,9.16 -41.84,27.46 0,8.72 3.41,15.62 10.24,20.71 6.83,5.08 16.2,7.62 28.11,7.62z"/>
   <path id="33" class="fil1" d="M11386.09 8191.39l0 323.4 -64.94 0 0 -27.02c-16.86,20.34 -41.27,30.51 -73.23,30.51 -22.08,0 -42.06,-4.94 -59.93,-14.82 -17.87,-9.88 -31.89,-23.97 -42.06,-42.28 -10.17,-18.31 -15.25,-39.52 -15.25,-63.63 0,-24.12 5.08,-45.33 15.25,-63.64 10.17,-18.3 24.19,-32.4 42.06,-42.28 17.87,-9.87 37.85,-14.81 59.93,-14.81 29.93,0 53.32,9.44 70.17,28.33l0 -113.76 68 0zm-126.4 271.1c17.14,0 31.38,-5.89 42.71,-17.65 11.34,-11.77 17,-27.54 17,-47.29 0,-19.76 -5.66,-35.53 -17,-47.29 -11.33,-11.77 -25.57,-17.66 -42.71,-17.66 -17.43,0 -31.82,5.89 -43.15,17.66 -11.33,11.76 -17,27.53 -17,47.29 0,19.75 5.67,35.52 17,47.29 11.33,11.76 25.72,17.65 43.15,17.65z"/>
   <path id="34" class="fil1" d="M11678.54 8398.42c0,0.87 -0.43,6.97 -1.3,18.3l-177.39 0c3.19,14.53 10.75,26.01 22.66,34.44 11.91,8.42 26.73,12.64 44.46,12.64 12.2,0 23.02,-1.82 32.47,-5.45 9.44,-3.63 18.23,-9.37 26.37,-17.22l36.17 39.23c-22.08,25.28 -54.33,37.92 -96.76,37.92 -26.44,0 -49.83,-5.16 -70.17,-15.48 -20.34,-10.31 -36.03,-24.62 -47.07,-42.93 -11.04,-18.3 -16.56,-39.08 -16.56,-62.32 0,-22.96 5.45,-43.66 16.34,-62.11 10.9,-18.45 25.86,-32.84 44.89,-43.15 19.04,-10.32 40.32,-15.47 63.86,-15.47 22.95,0 43.73,4.94 62.32,14.81 18.6,9.88 33.2,24.05 43.81,42.5 10.6,18.45 15.9,39.88 15.9,64.29zm-121.6 -70.17c-15.4,0 -28.33,4.35 -38.79,13.07 -10.46,8.72 -16.85,20.63 -19.18,35.74l115.5 0c-2.32,-14.82 -8.71,-26.66 -19.17,-35.52 -10.46,-8.86 -23.25,-13.29 -38.36,-13.29z"/>
   <polygon id="35" class="fil1" points="11723.87,8191.39 11791.86,8191.39 11791.86,8514.79 11723.87,8514.79 "/>
   <path id="36" class="fil1" d="M12144.79 8209.69c27.02,0 50.48,4.51 70.39,13.52 19.9,9 35.23,21.79 45.98,38.35 10.75,16.56 16.13,36.18 16.13,58.84 0,22.37 -5.38,41.92 -16.13,58.62 -10.75,16.71 -26.08,29.5 -45.98,38.36 -19.91,8.86 -43.37,13.29 -70.39,13.29l-61.46 0 0 84.12 -70.6 0 0 -305.1 132.06 0zm-3.92 163.45c21.21,0 37.33,-4.58 48.37,-13.73 11.05,-9.15 16.57,-22.16 16.57,-39.01 0,-17.14 -5.52,-30.29 -16.57,-39.44 -11.04,-9.16 -27.16,-13.73 -48.37,-13.73l-57.54 0 0 105.91 57.54 0z"/>
   <path id="37" class="fil1" d="M12415.01 8276.82c36.32,0 64.22,8.64 83.68,25.93 19.47,17.29 29.21,43.37 29.21,78.23l0 133.81 -63.64 0 0 -29.2c-12.78,21.79 -36.61,32.69 -71.48,32.69 -18.01,0 -33.63,-3.05 -46.85,-9.16 -13.22,-6.1 -23.32,-14.52 -30.29,-25.28 -6.98,-10.75 -10.46,-22.95 -10.46,-36.61 0,-21.79 8.2,-38.93 24.62,-51.43 16.42,-12.49 41.77,-18.74 76.06,-18.74l54.04 0c0,-14.82 -4.5,-26.22 -13.51,-34.21 -9.01,-7.99 -22.52,-11.99 -40.53,-11.99 -12.5,0 -24.77,1.96 -36.83,5.89 -12.06,3.92 -22.3,9.22 -30.73,15.9l-24.41 -47.5c12.79,-9.01 28.12,-15.99 45.99,-20.92 17.87,-4.94 36.24,-7.41 55.13,-7.41zm-5.23 195.69c11.62,0 21.94,-2.69 30.95,-8.06 9,-5.38 15.4,-13.29 19.17,-23.75l0 -23.98 -46.63 0c-27.9,0 -41.84,9.16 -41.84,27.46 0,8.72 3.41,15.62 10.24,20.71 6.83,5.08 16.2,7.62 28.11,7.62z"/>
   <path id="38" class="fil1" d="M12830.81 8191.39l0 323.4 -64.94 0 0 -27.02c-16.86,20.34 -41.27,30.51 -73.23,30.51 -22.08,0 -42.06,-4.94 -59.93,-14.82 -17.87,-9.88 -31.89,-23.97 -42.06,-42.28 -10.17,-18.31 -15.25,-39.52 -15.25,-63.63 0,-24.12 5.08,-45.33 15.25,-63.64 10.17,-18.3 24.19,-32.4 42.06,-42.28 17.87,-9.87 37.85,-14.81 59.93,-14.81 29.93,0 53.32,9.44 70.17,28.33l0 -113.76 68 0zm-126.4 271.1c17.14,0 31.38,-5.89 42.71,-17.65 11.34,-11.77 17,-27.54 17,-47.29 0,-19.76 -5.66,-35.53 -17,-47.29 -11.33,-11.77 -25.57,-17.66 -42.71,-17.66 -17.43,0 -31.82,5.89 -43.15,17.66 -11.33,11.76 -17,27.53 -17,47.29 0,19.75 5.67,35.52 17,47.29 11.33,11.76 25.72,17.65 43.15,17.65z"/>
   <path id="39" class="fil1" d="M12958.51 8311.25c8.14,-11.33 19.11,-19.91 32.91,-25.72 13.8,-5.81 29.71,-8.71 47.73,-8.71l0 62.76c-7.56,-0.58 -12.64,-0.87 -15.26,-0.87 -19.47,0 -34.72,5.44 -45.76,16.34 -11.05,10.9 -16.57,27.24 -16.57,49.03l0 110.71 -67.99 0 0 -234.49 64.94 0 0 30.95z"/>
   <path id="40" class="fil1" d="M13307.19 8398.42c0,0.87 -0.43,6.97 -1.3,18.3l-177.39 0c3.19,14.53 10.75,26.01 22.66,34.44 11.91,8.42 26.73,12.64 44.46,12.64 12.2,0 23.02,-1.82 32.47,-5.45 9.44,-3.63 18.23,-9.37 26.37,-17.22l36.17 39.23c-22.08,25.28 -54.33,37.92 -96.76,37.92 -26.44,0 -49.83,-5.16 -70.17,-15.48 -20.34,-10.31 -36.03,-24.62 -47.07,-42.93 -11.04,-18.3 -16.56,-39.08 -16.56,-62.32 0,-22.96 5.45,-43.66 16.34,-62.11 10.9,-18.45 25.86,-32.84 44.89,-43.15 19.04,-10.32 40.32,-15.47 63.86,-15.47 22.95,0 43.73,4.94 62.32,14.81 18.6,9.88 33.2,24.05 43.81,42.5 10.6,18.45 15.9,39.88 15.9,64.29zm-121.6 -70.17c-15.4,0 -28.33,4.35 -38.79,13.07 -10.46,8.72 -16.85,20.63 -19.18,35.74l115.5 0c-2.32,-14.82 -8.71,-26.66 -19.17,-35.52 -10.46,-8.86 -23.25,-13.29 -38.36,-13.29z"/>
   <path id="41" class="fil1" d="M13378.67 8433.72c12.21,0 22.23,3.85 30.08,11.55 7.84,7.7 11.76,17.8 11.76,30.29 0,5.81 -0.72,11.63 -2.18,17.44 -1.45,5.81 -4.64,14.53 -9.58,26.15l-24.85 62.76 -43.15 0 19.18 -69.3c-7.26,-2.9 -13,-7.63 -17.22,-14.16 -4.21,-6.54 -6.32,-14.17 -6.32,-22.89 0,-12.49 4,-22.59 11.99,-30.29 7.99,-7.7 18.09,-11.55 30.29,-11.55z"/>
   <path id="42" class="fil1" d="M1140.02 9119.32c-24.99,0 -47.43,-5.16 -67.34,-15.48 -19.9,-10.31 -35.45,-24.62 -46.63,-42.93 -11.19,-18.3 -16.78,-39.08 -16.78,-62.32 0,-23.25 5.59,-44.02 16.78,-62.33 11.18,-18.31 26.73,-32.62 46.63,-42.93 19.91,-10.32 42.35,-15.47 67.34,-15.47 24.7,0 46.27,5.15 64.73,15.47 18.45,10.31 31.89,25.06 40.31,44.24l-52.74 28.33c-12.2,-21.5 -29.78,-32.26 -52.73,-32.26 -17.73,0 -32.4,5.82 -44.02,17.44 -11.63,11.62 -17.44,27.46 -17.44,47.51 0,20.05 5.81,35.88 17.44,47.5 11.62,11.63 26.29,17.44 44.02,17.44 23.24,0 40.82,-10.75 52.73,-32.25l52.74 28.76c-8.42,18.6 -21.86,33.13 -40.31,43.59 -18.46,10.46 -40.03,15.69 -64.73,15.69z"/>
   <path id="43" class="fil1" d="M1392.82 9119.32c-24.7,0 -46.86,-5.16 -66.47,-15.48 -19.61,-10.31 -34.94,-24.62 -45.98,-42.93 -11.04,-18.3 -16.56,-39.08 -16.56,-62.32 0,-23.25 5.52,-44.02 16.56,-62.33 11.04,-18.31 26.37,-32.62 45.98,-42.93 19.61,-10.32 41.77,-15.47 66.47,-15.47 24.7,0 46.78,5.15 66.25,15.47 19.47,10.31 34.72,24.62 45.76,42.93 11.04,18.31 16.56,39.08 16.56,62.33 0,23.24 -5.52,44.02 -16.56,62.32 -11.04,18.31 -26.29,32.62 -45.76,42.93 -19.47,10.32 -41.55,15.48 -66.25,15.48zm0 -55.79c17.43,0 31.74,-5.89 42.93,-17.65 11.19,-11.77 16.78,-27.54 16.78,-47.29 0,-19.76 -5.59,-35.53 -16.78,-47.29 -11.19,-11.77 -25.5,-17.66 -42.93,-17.66 -17.44,0 -31.82,5.89 -43.15,17.66 -11.33,11.76 -17,27.53 -17,47.29 0,19.75 5.67,35.52 17,47.29 11.33,11.76 25.71,17.65 43.15,17.65z"/>
   <path id="44" class="fil1" d="M1867.02 8877.86c29.35,0 52.67,8.64 69.96,25.93 17.28,17.29 25.93,43.22 25.93,77.8l0 134.24 -67.99 0 0 -123.78c0,-18.6 -3.85,-32.47 -11.55,-41.63 -7.7,-9.15 -18.67,-13.72 -32.91,-13.72 -15.98,0 -28.62,5.15 -37.92,15.47 -9.3,10.31 -13.95,25.64 -13.95,45.98l0 117.68 -67.99 0 0 -123.78c0,-36.9 -14.82,-55.35 -44.46,-55.35 -15.69,0 -28.18,5.15 -37.48,15.47 -9.3,10.31 -13.95,25.64 -13.95,45.98l0 117.68 -67.99 0 0 -234.49 64.94 0 0 27.03c8.72,-9.88 19.4,-17.44 32.04,-22.67 12.64,-5.23 26.51,-7.84 41.62,-7.84 16.56,0 31.53,3.26 44.89,9.8 13.37,6.54 24.12,16.06 32.26,28.55 9.59,-12.2 21.72,-21.65 36.39,-28.33 14.67,-6.68 30.73,-10.02 48.16,-10.02z"/>
   <path id="45" class="fil1" d="M2256.23 8999.46c0,0.87 -0.43,6.97 -1.3,18.3l-177.39 0c3.19,14.53 10.75,26.01 22.66,34.44 11.91,8.42 26.73,12.64 44.46,12.64 12.2,0 23.02,-1.82 32.47,-5.45 9.44,-3.63 18.23,-9.37 26.37,-17.22l36.17 39.23c-22.08,25.28 -54.33,37.92 -96.76,37.92 -26.44,0 -49.83,-5.16 -70.17,-15.48 -20.34,-10.31 -36.03,-24.62 -47.07,-42.93 -11.04,-18.3 -16.56,-39.08 -16.56,-62.32 0,-22.96 5.45,-43.66 16.34,-62.11 10.9,-18.45 25.86,-32.84 44.89,-43.15 19.04,-10.32 40.32,-15.47 63.86,-15.47 22.95,0 43.73,4.94 62.32,14.81 18.6,9.88 33.2,24.05 43.81,42.5 10.6,18.45 15.9,39.88 15.9,64.29zm-121.6 -70.17c-15.4,0 -28.33,4.35 -38.79,13.07 -10.46,8.72 -16.85,20.63 -19.18,35.74l115.5 0c-2.32,-14.82 -8.71,-26.66 -19.17,-35.52 -10.46,-8.86 -23.25,-13.29 -38.36,-13.29z"/>
   <path id="46" class="fil1" d="M2444.08 8877.86c29.06,0 52.52,8.71 70.39,26.15 17.87,17.43 26.81,43.29 26.81,77.58l0 134.24 -67.99 0 0 -123.78c0,-18.6 -4.07,-32.47 -12.21,-41.63 -8.13,-9.15 -19.9,-13.72 -35.3,-13.72 -17.14,0 -30.8,5.3 -40.97,15.9 -10.17,10.61 -15.26,26.37 -15.26,47.29l0 115.94 -67.99 0 0 -234.49 64.94 0 0 27.46c9.01,-9.88 20.2,-17.51 33.56,-22.88 13.37,-5.38 28.04,-8.06 44.02,-8.06z"/>
   <polygon id="47" class="fil1" points="2795.81,9063.53 2795.81,9115.83 2586.6,9115.83 2586.6,9074.86 2706.03,8933.64 2589.66,8933.64 2589.66,8881.34 2791.89,8881.34 2791.89,8922.31 2672.47,9063.53 "/>
   <path id="48" class="fil1" d="M2933.98 8877.86c36.32,0 64.22,8.64 83.68,25.93 19.47,17.29 29.21,43.37 29.21,78.23l0 133.81 -63.64 0 0 -29.2c-12.78,21.79 -36.61,32.69 -71.48,32.69 -18.01,0 -33.63,-3.05 -46.85,-9.16 -13.22,-6.1 -23.32,-14.52 -30.29,-25.28 -6.98,-10.75 -10.46,-22.95 -10.46,-36.61 0,-21.79 8.2,-38.93 24.62,-51.43 16.42,-12.49 41.77,-18.74 76.06,-18.74l54.04 0c0,-14.82 -4.5,-26.22 -13.51,-34.21 -9.01,-7.99 -22.52,-11.99 -40.53,-11.99 -12.5,0 -24.77,1.96 -36.83,5.89 -12.06,3.92 -22.3,9.22 -30.73,15.9l-24.41 -47.5c12.79,-9.01 28.12,-15.99 45.99,-20.92 17.87,-4.94 36.24,-7.41 55.13,-7.41zm-5.23 195.69c11.62,0 21.94,-2.69 30.95,-8.06 9,-5.38 15.4,-13.29 19.17,-23.75l0 -23.98 -46.63 0c-27.9,0 -41.84,9.16 -41.84,27.46 0,8.72 3.41,15.62 10.24,20.71 6.83,5.08 16.2,7.62 28.11,7.62z"/>
   <path id="49" class="fil1" d="M3173.26 8912.29c8.14,-11.33 19.11,-19.91 32.91,-25.72 13.8,-5.81 29.71,-8.71 47.73,-8.71l0 62.76c-7.56,-0.58 -12.64,-0.87 -15.26,-0.87 -19.47,0 -34.72,5.44 -45.76,16.34 -11.05,10.9 -16.57,27.24 -16.57,49.03l0 110.71 -67.99 0 0 -234.49 64.94 0 0 30.95z"/>
   <path id="50" class="fil1" d="M3294.43 8881.34l67.99 0 0 234.49 -67.99 0 0 -234.49zm53.17 -92.83l73.23 0 -78.89 62.76 -53.17 0 58.83 -62.76z"/>
   <path id="51" class="fil1" d="M3520.2 8877.86c36.32,0 64.22,8.64 83.68,25.93 19.47,17.29 29.21,43.37 29.21,78.23l0 133.81 -63.64 0 0 -29.2c-12.78,21.79 -36.61,32.69 -71.48,32.69 -18.01,0 -33.63,-3.05 -46.85,-9.16 -13.22,-6.1 -23.32,-14.52 -30.29,-25.28 -6.98,-10.75 -10.46,-22.95 -10.46,-36.61 0,-21.79 8.2,-38.93 24.62,-51.43 16.42,-12.49 41.77,-18.74 76.06,-18.74l54.04 0c0,-14.82 -4.5,-26.22 -13.51,-34.21 -9.01,-7.99 -22.52,-11.99 -40.53,-11.99 -12.5,0 -24.77,1.96 -36.83,5.89 -12.06,3.92 -22.3,9.22 -30.73,15.9l-24.41 -47.5c12.79,-9.01 28.12,-15.99 45.99,-20.92 17.87,-4.94 36.24,-7.41 55.13,-7.41zm-5.23 195.69c11.62,0 21.94,-2.69 30.95,-8.06 9,-5.38 15.4,-13.29 19.17,-23.75l0 -23.98 -46.63 0c-27.9,0 -41.84,9.16 -41.84,27.46 0,8.72 3.41,15.62 10.24,20.71 6.83,5.08 16.2,7.62 28.11,7.62z"/>
   <path id="52" class="fil1" d="M4054.12 8881.34l0 234.49 -64.5 0 0 -27.89c-9.01,10.17 -19.76,17.94 -32.26,23.31 -12.49,5.38 -26,8.07 -40.53,8.07 -30.8,0 -55.21,-8.87 -73.22,-26.59 -18.02,-17.72 -27.03,-44.02 -27.03,-78.89l0 -132.5 68 0 0 122.48c0,37.77 15.83,56.66 47.5,56.66 16.28,0 29.35,-5.31 39.23,-15.91 9.88,-10.61 14.82,-26.37 14.82,-47.29l0 -115.94 67.99 0z"/>
   <path id="53" class="fil1" d="M4259.84 8877.86c29.06,0 52.52,8.71 70.39,26.15 17.87,17.43 26.81,43.29 26.81,77.58l0 134.24 -67.99 0 0 -123.78c0,-18.6 -4.07,-32.47 -12.21,-41.63 -8.13,-9.15 -19.9,-13.72 -35.3,-13.72 -17.14,0 -30.8,5.3 -40.97,15.9 -10.17,10.61 -15.26,26.37 -15.26,47.29l0 115.94 -67.99 0 0 -234.49 64.94 0 0 27.46c9.01,-9.88 20.2,-17.51 33.56,-22.88 13.37,-5.38 28.04,-8.06 44.02,-8.06z"/>
   <path id="54" class="fil1" d="M4513.07 8877.86c36.32,0 64.22,8.64 83.68,25.93 19.47,17.29 29.21,43.37 29.21,78.23l0 133.81 -63.64 0 0 -29.2c-12.78,21.79 -36.61,32.69 -71.48,32.69 -18.01,0 -33.63,-3.05 -46.85,-9.16 -13.22,-6.1 -23.32,-14.52 -30.29,-25.28 -6.98,-10.75 -10.46,-22.95 -10.46,-36.61 0,-21.79 8.2,-38.93 24.62,-51.43 16.42,-12.49 41.77,-18.74 76.06,-18.74l54.04 0c0,-14.82 -4.5,-26.22 -13.51,-34.21 -9.01,-7.99 -22.52,-11.99 -40.53,-11.99 -12.5,0 -24.77,1.96 -36.83,5.89 -12.06,3.92 -22.3,9.22 -30.73,15.9l-24.41 -47.5c12.79,-9.01 28.12,-15.99 45.99,-20.92 17.87,-4.94 36.24,-7.41 55.13,-7.41zm-5.23 195.69c11.62,0 21.94,-2.69 30.95,-8.06 9,-5.38 15.4,-13.29 19.17,-23.75l0 -23.98 -46.63 0c-27.9,0 -41.84,9.16 -41.84,27.46 0,8.72 3.41,15.62 10.24,20.71 6.83,5.08 16.2,7.62 28.11,7.62z"/>
   <path id="55" class="fil1" d="M4924.08 9119.32c-24.99,0 -47.43,-5.16 -67.34,-15.48 -19.9,-10.31 -35.45,-24.62 -46.63,-42.93 -11.19,-18.3 -16.78,-39.08 -16.78,-62.32 0,-23.25 5.59,-44.02 16.78,-62.33 11.18,-18.31 26.73,-32.62 46.63,-42.93 19.91,-10.32 42.35,-15.47 67.34,-15.47 24.7,0 46.27,5.15 64.73,15.47 18.45,10.31 31.89,25.06 40.31,44.24l-52.74 28.33c-12.2,-21.5 -29.78,-32.26 -52.73,-32.26 -17.73,0 -32.4,5.82 -44.02,17.44 -11.63,11.62 -17.44,27.46 -17.44,47.51 0,20.05 5.81,35.88 17.44,47.5 11.62,11.63 26.29,17.44 44.02,17.44 23.24,0 40.82,-10.75 52.73,-32.25l52.74 28.76c-8.42,18.6 -21.86,33.13 -40.31,43.59 -18.46,10.46 -40.03,15.69 -64.73,15.69z"/>
   <path id="56" class="fil1" d="M5162.93 8877.86c36.32,0 64.22,8.64 83.68,25.93 19.47,17.29 29.21,43.37 29.21,78.23l0 133.81 -63.64 0 0 -29.2c-12.78,21.79 -36.61,32.69 -71.48,32.69 -18.01,0 -33.63,-3.05 -46.85,-9.16 -13.22,-6.1 -23.32,-14.52 -30.29,-25.28 -6.98,-10.75 -10.46,-22.95 -10.46,-36.61 0,-21.79 8.2,-38.93 24.62,-51.43 16.42,-12.49 41.77,-18.74 76.06,-18.74l54.04 0c0,-14.82 -4.5,-26.22 -13.51,-34.21 -9.01,-7.99 -22.52,-11.99 -40.53,-11.99 -12.5,0 -24.77,1.96 -36.83,5.89 -12.06,3.92 -22.3,9.22 -30.73,15.9l-24.41 -47.5c12.79,-9.01 28.12,-15.99 45.99,-20.92 17.87,-4.94 36.24,-7.41 55.13,-7.41zm-5.23 195.69c11.62,0 21.94,-2.69 30.95,-8.06 9,-5.38 15.4,-13.29 19.17,-23.75l0 -23.98 -46.63 0c-27.9,0 -41.84,9.16 -41.84,27.46 0,8.72 3.41,15.62 10.24,20.71 6.83,5.08 16.2,7.62 28.11,7.62z"/>
   <path id="57" class="fil1" d="M5578.73 8792.43l0 323.4 -64.94 0 0 -27.02c-16.86,20.34 -41.27,30.51 -73.23,30.51 -22.08,0 -42.06,-4.94 -59.93,-14.82 -17.87,-9.88 -31.89,-23.97 -42.06,-42.28 -10.17,-18.31 -15.25,-39.52 -15.25,-63.63 0,-24.12 5.08,-45.33 15.25,-63.64 10.17,-18.3 24.19,-32.4 42.06,-42.28 17.87,-9.87 37.85,-14.81 59.93,-14.81 29.93,0 53.32,9.44 70.17,28.33l0 -113.76 68 0zm-126.4 271.1c17.14,0 31.38,-5.89 42.71,-17.65 11.34,-11.77 17,-27.54 17,-47.29 0,-19.76 -5.66,-35.53 -17,-47.29 -11.33,-11.77 -25.57,-17.66 -42.71,-17.66 -17.43,0 -31.82,5.89 -43.15,17.66 -11.33,11.76 -17,27.53 -17,47.29 0,19.75 5.67,35.52 17,47.29 11.33,11.76 25.72,17.65 43.15,17.65z"/>
   <path id="58" class="fil1" d="M5871.18 8999.46c0,0.87 -0.43,6.97 -1.3,18.3l-177.39 0c3.19,14.53 10.75,26.01 22.66,34.44 11.91,8.42 26.73,12.64 44.46,12.64 12.2,0 23.02,-1.82 32.47,-5.45 9.44,-3.63 18.23,-9.37 26.37,-17.22l36.17 39.23c-22.08,25.28 -54.33,37.92 -96.76,37.92 -26.44,0 -49.83,-5.16 -70.17,-15.48 -20.34,-10.31 -36.03,-24.62 -47.07,-42.93 -11.04,-18.3 -16.56,-39.08 -16.56,-62.32 0,-22.96 5.45,-43.66 16.34,-62.11 10.9,-18.45 25.86,-32.84 44.89,-43.15 19.04,-10.32 40.32,-15.47 63.86,-15.47 22.95,0 43.73,4.94 62.32,14.81 18.6,9.88 33.2,24.05 43.81,42.5 10.6,18.45 15.9,39.88 15.9,64.29zm-121.6 -70.17c-15.4,0 -28.33,4.35 -38.79,13.07 -10.46,8.72 -16.85,20.63 -19.18,35.74l115.5 0c-2.32,-14.82 -8.71,-26.66 -19.17,-35.52 -10.46,-8.86 -23.25,-13.29 -38.36,-13.29z"/>
   <path id="59" class="fil1" d="M6059.03 8877.86c29.06,0 52.52,8.71 70.39,26.15 17.87,17.43 26.81,43.29 26.81,77.58l0 134.24 -67.99 0 0 -123.78c0,-18.6 -4.07,-32.47 -12.21,-41.63 -8.13,-9.15 -19.9,-13.72 -35.3,-13.72 -17.14,0 -30.8,5.3 -40.97,15.9 -10.17,10.61 -15.26,26.37 -15.26,47.29l0 115.94 -67.99 0 0 -234.49 64.94 0 0 27.46c9.01,-9.88 20.2,-17.51 33.56,-22.88 13.37,-5.38 28.04,-8.06 44.02,-8.06z"/>
   <path id="60" class="fil1" d="M6312.26 8877.86c36.32,0 64.22,8.64 83.68,25.93 19.47,17.29 29.21,43.37 29.21,78.23l0 133.81 -63.64 0 0 -29.2c-12.78,21.79 -36.61,32.69 -71.48,32.69 -18.01,0 -33.63,-3.05 -46.85,-9.16 -13.22,-6.1 -23.32,-14.52 -30.29,-25.28 -6.98,-10.75 -10.46,-22.95 -10.46,-36.61 0,-21.79 8.2,-38.93 24.62,-51.43 16.42,-12.49 41.77,-18.74 76.06,-18.74l54.04 0c0,-14.82 -4.5,-26.22 -13.51,-34.21 -9.01,-7.99 -22.52,-11.99 -40.53,-11.99 -12.5,0 -24.77,1.96 -36.83,5.89 -12.06,3.92 -22.3,9.22 -30.73,15.9l-24.41 -47.5c12.79,-9.01 28.12,-15.99 45.99,-20.92 17.87,-4.94 36.24,-7.41 55.13,-7.41zm-5.23 195.69c11.62,0 21.94,-2.69 30.95,-8.06 9,-5.38 15.4,-13.29 19.17,-23.75l0 -23.98 -46.63 0c-27.9,0 -41.84,9.16 -41.84,27.46 0,8.72 3.41,15.62 10.24,20.71 6.83,5.08 16.2,7.62 28.11,7.62z"/>
   <path id="61" class="fil1" d="M6848.8 8792.43l0 323.4 -64.94 0 0 -27.02c-16.86,20.34 -41.27,30.51 -73.23,30.51 -22.08,0 -42.06,-4.94 -59.93,-14.82 -17.87,-9.88 -31.89,-23.97 -42.06,-42.28 -10.17,-18.31 -15.25,-39.52 -15.25,-63.63 0,-24.12 5.08,-45.33 15.25,-63.64 10.17,-18.3 24.19,-32.4 42.06,-42.28 17.87,-9.87 37.85,-14.81 59.93,-14.81 29.93,0 53.32,9.44 70.17,28.33l0 -113.76 68 0zm-126.4 271.1c17.14,0 31.38,-5.89 42.71,-17.65 11.34,-11.77 17,-27.54 17,-47.29 0,-19.76 -5.66,-35.53 -17,-47.29 -11.33,-11.77 -25.57,-17.66 -42.71,-17.66 -17.43,0 -31.82,5.89 -43.15,17.66 -11.33,11.76 -17,27.53 -17,47.29 0,19.75 5.67,35.52 17,47.29 11.33,11.76 25.72,17.65 43.15,17.65z"/>
   <path id="62" class="fil1" d="M7141.25 8999.46c0,0.87 -0.43,6.97 -1.3,18.3l-177.39 0c3.19,14.53 10.75,26.01 22.66,34.44 11.91,8.42 26.73,12.64 44.46,12.64 12.2,0 23.02,-1.82 32.47,-5.45 9.44,-3.63 18.23,-9.37 26.37,-17.22l36.17 39.23c-22.08,25.28 -54.33,37.92 -96.76,37.92 -26.44,0 -49.83,-5.16 -70.17,-15.48 -20.34,-10.31 -36.03,-24.62 -47.07,-42.93 -11.04,-18.3 -16.56,-39.08 -16.56,-62.32 0,-22.96 5.45,-43.66 16.34,-62.11 10.9,-18.45 25.86,-32.84 44.89,-43.15 19.04,-10.32 40.32,-15.47 63.86,-15.47 22.95,0 43.73,4.94 62.32,14.81 18.6,9.88 33.2,24.05 43.81,42.5 10.6,18.45 15.9,39.88 15.9,64.29zm-121.6 -70.17c-15.4,0 -28.33,4.35 -38.79,13.07 -10.46,8.72 -16.85,20.63 -19.18,35.74l115.5 0c-2.32,-14.82 -8.71,-26.66 -19.17,-35.52 -10.46,-8.86 -23.25,-13.29 -38.36,-13.29z"/>
   <path id="63" class="fil1" d="M7388.82 9119.32c-19.47,0 -38.5,-2.4 -57.1,-7.19 -18.59,-4.8 -33.41,-10.83 -44.45,-18.09l22.66 -48.82c10.46,6.69 23.1,12.13 37.92,16.35 14.82,4.21 29.35,6.32 43.59,6.32 28.76,0 43.14,-7.12 43.14,-21.36 0,-6.68 -3.92,-11.48 -11.76,-14.38 -7.85,-2.91 -19.91,-5.38 -36.18,-7.41 -19.18,-2.91 -35.01,-6.25 -47.51,-10.03 -12.49,-3.77 -23.31,-10.46 -32.47,-20.05 -9.15,-9.59 -13.73,-23.24 -13.73,-40.97 0,-14.82 4.29,-27.96 12.86,-39.44 8.57,-11.48 21.07,-20.41 37.48,-26.81 16.42,-6.39 35.82,-9.58 58.19,-9.58 16.56,0 33.05,1.81 49.47,5.44 16.42,3.64 30,8.65 40.75,15.04l-22.66 48.38c-20.63,-11.62 -43.15,-17.43 -67.56,-17.43 -14.53,0 -25.42,2.03 -32.69,6.1 -7.26,4.07 -10.9,9.3 -10.9,15.69 0,7.26 3.93,12.35 11.77,15.25 7.85,2.91 20.34,5.67 37.49,8.28 19.17,3.2 34.86,6.61 47.07,10.25 12.2,3.63 22.81,10.24 31.81,19.83 9.01,9.59 13.52,22.95 13.52,40.1 0,14.52 -4.36,27.45 -13.08,38.79 -8.72,11.33 -21.43,20.12 -38.14,26.37 -16.7,6.24 -36.54,9.37 -59.49,9.37z"/>
   <path id="64" class="fil1" d="M7777.6 8881.34l0 234.49 -64.5 0 0 -27.89c-9.01,10.17 -19.76,17.94 -32.26,23.31 -12.49,5.38 -26,8.07 -40.53,8.07 -30.8,0 -55.21,-8.87 -73.22,-26.59 -18.02,-17.72 -27.03,-44.02 -27.03,-78.89l0 -132.5 68 0 0 122.48c0,37.77 15.83,56.66 47.5,56.66 16.28,0 29.35,-5.31 39.23,-15.91 9.88,-10.61 14.82,-26.37 14.82,-47.29l0 -115.94 67.99 0z"/>
   <path id="65" class="fil1" d="M7954.12 9119.32c-24.99,0 -47.43,-5.16 -67.34,-15.48 -19.9,-10.31 -35.45,-24.62 -46.63,-42.93 -11.19,-18.3 -16.78,-39.08 -16.78,-62.32 0,-23.25 5.59,-44.02 16.78,-62.33 11.18,-18.31 26.73,-32.62 46.63,-42.93 19.91,-10.32 42.35,-15.47 67.34,-15.47 24.7,0 46.27,5.15 64.73,15.47 18.45,10.31 31.89,25.06 40.31,44.24l-52.74 28.33c-12.2,-21.5 -29.78,-32.26 -52.73,-32.26 -17.73,0 -32.4,5.82 -44.02,17.44 -11.63,11.62 -17.44,27.46 -17.44,47.51 0,20.05 5.81,35.88 17.44,47.5 11.62,11.63 26.29,17.44 44.02,17.44 23.24,0 40.82,-10.75 52.73,-32.25l52.74 28.76c-8.42,18.6 -21.86,33.13 -40.31,43.59 -18.46,10.46 -40.03,15.69 -64.73,15.69z"/>
   <path id="66" class="fil1" d="M8325.03 8999.46c0,0.87 -0.43,6.97 -1.3,18.3l-177.39 0c3.19,14.53 10.75,26.01 22.66,34.44 11.91,8.42 26.73,12.64 44.46,12.64 12.2,0 23.02,-1.82 32.47,-5.45 9.44,-3.63 18.23,-9.37 26.37,-17.22l36.17 39.23c-22.08,25.28 -54.33,37.92 -96.76,37.92 -26.44,0 -49.83,-5.16 -70.17,-15.48 -20.34,-10.31 -36.03,-24.62 -47.07,-42.93 -11.04,-18.3 -16.56,-39.08 -16.56,-62.32 0,-22.96 5.45,-43.66 16.34,-62.11 10.9,-18.45 25.86,-32.84 44.89,-43.15 19.04,-10.32 40.32,-15.47 63.86,-15.47 22.95,0 43.73,4.94 62.32,14.81 18.6,9.88 33.2,24.05 43.81,42.5 10.6,18.45 15.9,39.88 15.9,64.29zm-121.6 -70.17c-15.4,0 -28.33,4.35 -38.79,13.07 -10.46,8.72 -16.85,20.63 -19.18,35.74l115.5 0c-2.32,-14.82 -8.71,-26.66 -19.17,-35.52 -10.46,-8.86 -23.25,-13.29 -38.36,-13.29z"/>
   <path id="67" class="fil1" d="M8449.25 9119.32c-19.47,0 -38.5,-2.4 -57.1,-7.19 -18.59,-4.8 -33.41,-10.83 -44.45,-18.09l22.66 -48.82c10.46,6.69 23.1,12.13 37.92,16.35 14.82,4.21 29.35,6.32 43.59,6.32 28.76,0 43.14,-7.12 43.14,-21.36 0,-6.68 -3.92,-11.48 -11.76,-14.38 -7.85,-2.91 -19.91,-5.38 -36.18,-7.41 -19.18,-2.91 -35.01,-6.25 -47.51,-10.03 -12.49,-3.77 -23.31,-10.46 -32.47,-20.05 -9.15,-9.59 -13.73,-23.24 -13.73,-40.97 0,-14.82 4.29,-27.96 12.86,-39.44 8.57,-11.48 21.07,-20.41 37.48,-26.81 16.42,-6.39 35.82,-9.58 58.19,-9.58 16.56,0 33.05,1.81 49.47,5.44 16.42,3.64 30,8.65 40.75,15.04l-22.66 48.38c-20.63,-11.62 -43.15,-17.43 -67.56,-17.43 -14.53,0 -25.42,2.03 -32.69,6.1 -7.26,4.07 -10.9,9.3 -10.9,15.69 0,7.26 3.93,12.35 11.77,15.25 7.85,2.91 20.34,5.67 37.49,8.28 19.17,3.2 34.86,6.61 47.07,10.25 12.2,3.63 22.81,10.24 31.81,19.83 9.01,9.59 13.52,22.95 13.52,40.1 0,14.52 -4.36,27.45 -13.08,38.79 -8.72,11.33 -21.43,20.12 -38.14,26.37 -16.7,6.24 -36.54,9.37 -59.49,9.37z"/>
   <path id="68" class="fil1" d="M8713.38 9119.32c-24.7,0 -46.86,-5.16 -66.47,-15.48 -19.61,-10.31 -34.94,-24.62 -45.98,-42.93 -11.04,-18.3 -16.56,-39.08 -16.56,-62.32 0,-23.25 5.52,-44.02 16.56,-62.33 11.04,-18.31 26.37,-32.62 45.98,-42.93 19.61,-10.32 41.77,-15.47 66.47,-15.47 24.7,0 46.78,5.15 66.25,15.47 19.47,10.31 34.72,24.62 45.76,42.93 11.04,18.31 16.56,39.08 16.56,62.33 0,23.24 -5.52,44.02 -16.56,62.32 -11.04,18.31 -26.29,32.62 -45.76,42.93 -19.47,10.32 -41.55,15.48 -66.25,15.48zm0 -55.79c17.43,0 31.74,-5.89 42.93,-17.65 11.19,-11.77 16.78,-27.54 16.78,-47.29 0,-19.76 -5.59,-35.53 -16.78,-47.29 -11.19,-11.77 -25.5,-17.66 -42.93,-17.66 -17.44,0 -31.82,5.89 -43.15,17.66 -11.33,11.76 -17,27.53 -17,47.29 0,19.75 5.67,35.52 17,47.29 11.33,11.76 25.71,17.65 43.15,17.65z"/>
   <path id="69" class="fil1" d="M8966.17 9119.32c-19.47,0 -38.5,-2.4 -57.1,-7.19 -18.59,-4.8 -33.41,-10.83 -44.45,-18.09l22.66 -48.82c10.46,6.69 23.1,12.13 37.92,16.35 14.82,4.21 29.35,6.32 43.59,6.32 28.76,0 43.14,-7.12 43.14,-21.36 0,-6.68 -3.92,-11.48 -11.76,-14.38 -7.85,-2.91 -19.91,-5.38 -36.18,-7.41 -19.18,-2.91 -35.01,-6.25 -47.51,-10.03 -12.49,-3.77 -23.31,-10.46 -32.47,-20.05 -9.15,-9.59 -13.73,-23.24 -13.73,-40.97 0,-14.82 4.29,-27.96 12.86,-39.44 8.57,-11.48 21.07,-20.41 37.48,-26.81 16.42,-6.39 35.82,-9.58 58.19,-9.58 16.56,0 33.05,1.81 49.47,5.44 16.42,3.64 30,8.65 40.75,15.04l-22.66 48.38c-20.63,-11.62 -43.15,-17.43 -67.56,-17.43 -14.53,0 -25.42,2.03 -32.69,6.1 -7.26,4.07 -10.9,9.3 -10.9,15.69 0,7.26 3.93,12.35 11.77,15.25 7.85,2.91 20.34,5.67 37.49,8.28 19.17,3.2 34.86,6.61 47.07,10.25 12.2,3.63 22.81,10.24 31.81,19.83 9.01,9.59 13.52,22.95 13.52,40.1 0,14.52 -4.36,27.45 -13.08,38.79 -8.72,11.33 -21.43,20.12 -38.14,26.37 -16.7,6.24 -36.54,9.37 -59.49,9.37z"/>
   <path id="70" class="fil1" d="M9480.05 8881.34l0 319.04 -68 0 0 -109.39c-16.85,18.88 -40.24,28.33 -70.17,28.33 -22.08,0 -42.06,-4.94 -59.93,-14.82 -17.87,-9.88 -31.89,-23.97 -42.06,-42.28 -10.17,-18.31 -15.25,-39.52 -15.25,-63.63 0,-24.12 5.08,-45.33 15.25,-63.64 10.17,-18.3 24.19,-32.4 42.06,-42.28 17.87,-9.87 37.85,-14.81 59.93,-14.81 31.96,0 56.37,10.17 73.22,30.51l0 -27.03 64.95 0zm-126.4 182.19c17.14,0 31.38,-5.89 42.71,-17.65 11.33,-11.77 17,-27.54 17,-47.29 0,-19.76 -5.67,-35.53 -17,-47.29 -11.33,-11.77 -25.57,-17.66 -42.71,-17.66 -17.44,0 -31.82,5.89 -43.15,17.66 -11.33,11.76 -17,27.53 -17,47.29 0,19.75 5.67,35.52 17,47.29 11.33,11.76 25.71,17.65 43.15,17.65z"/>
   <path id="71" class="fil1" d="M9779.04 8881.34l0 234.49 -64.5 0 0 -27.89c-9.01,10.17 -19.76,17.94 -32.26,23.31 -12.49,5.38 -26,8.07 -40.53,8.07 -30.8,0 -55.21,-8.87 -73.22,-26.59 -18.02,-17.72 -27.03,-44.02 -27.03,-78.89l0 -132.5 68 0 0 122.48c0,37.77 15.83,56.66 47.5,56.66 16.28,0 29.35,-5.31 39.23,-15.91 9.88,-10.61 14.82,-26.37 14.82,-47.29l0 -115.94 67.99 0z"/>
   <path id="72" class="fil1" d="M10071.93 8999.46c0,0.87 -0.43,6.97 -1.3,18.3l-177.39 0c3.19,14.53 10.75,26.01 22.66,34.44 11.91,8.42 26.73,12.64 44.46,12.64 12.2,0 23.02,-1.82 32.47,-5.45 9.44,-3.63 18.23,-9.37 26.37,-17.22l36.17 39.23c-22.08,25.28 -54.33,37.92 -96.76,37.92 -26.44,0 -49.83,-5.16 -70.17,-15.48 -20.34,-10.31 -36.03,-24.62 -47.07,-42.93 -11.04,-18.3 -16.56,-39.08 -16.56,-62.32 0,-22.96 5.45,-43.66 16.34,-62.11 10.9,-18.45 25.86,-32.84 44.89,-43.15 19.04,-10.32 40.32,-15.47 63.86,-15.47 22.95,0 43.73,4.94 62.32,14.81 18.6,9.88 33.2,24.05 43.81,42.5 10.6,18.45 15.9,39.88 15.9,64.29zm-121.6 -70.17c-15.4,0 -28.33,4.35 -38.79,13.07 -10.46,8.72 -16.85,20.63 -19.18,35.74l115.5 0c-2.32,-14.82 -8.71,-26.66 -19.17,-35.52 -10.46,-8.86 -23.25,-13.29 -38.36,-13.29z"/>
   <polygon id="73" class="fil1" points="10240.61,8792.43 10308.6,8792.43 10308.6,9115.83 10240.61,9115.83 "/>
   <path id="74" class="fil1" d="M10483.38 9119.32c-24.7,0 -46.86,-5.16 -66.47,-15.48 -19.61,-10.31 -34.94,-24.62 -45.98,-42.93 -11.04,-18.3 -16.56,-39.08 -16.56,-62.32 0,-23.25 5.52,-44.02 16.56,-62.33 11.04,-18.31 26.37,-32.62 45.98,-42.93 19.61,-10.32 41.77,-15.47 66.47,-15.47 24.7,0 46.78,5.15 66.25,15.47 19.47,10.31 34.72,24.62 45.76,42.93 11.04,18.31 16.56,39.08 16.56,62.33 0,23.24 -5.52,44.02 -16.56,62.32 -11.04,18.31 -26.29,32.62 -45.76,42.93 -19.47,10.32 -41.55,15.48 -66.25,15.48zm0 -55.79c17.43,0 31.74,-5.89 42.93,-17.65 11.19,-11.77 16.78,-27.54 16.78,-47.29 0,-19.76 -5.59,-35.53 -16.78,-47.29 -11.19,-11.77 -25.5,-17.66 -42.93,-17.66 -17.44,0 -31.82,5.89 -43.15,17.66 -11.33,11.76 -17,27.53 -17,47.29 0,19.75 5.67,35.52 17,47.29 11.33,11.76 25.71,17.65 43.15,17.65z"/>
   <path id="75" class="fil1" d="M10893.95 9119.32c-24.99,0 -47.43,-5.16 -67.34,-15.48 -19.9,-10.31 -35.45,-24.62 -46.63,-42.93 -11.19,-18.3 -16.78,-39.08 -16.78,-62.32 0,-23.25 5.59,-44.02 16.78,-62.33 11.18,-18.31 26.73,-32.62 46.63,-42.93 19.91,-10.32 42.35,-15.47 67.34,-15.47 24.7,0 46.27,5.15 64.73,15.47 18.45,10.31 31.89,25.06 40.31,44.24l-52.74 28.33c-12.2,-21.5 -29.78,-32.26 -52.73,-32.26 -17.73,0 -32.4,5.82 -44.02,17.44 -11.63,11.62 -17.44,27.46 -17.44,47.51 0,20.05 5.81,35.88 17.44,47.5 11.62,11.63 26.29,17.44 44.02,17.44 23.24,0 40.82,-10.75 52.73,-32.25l52.74 28.76c-8.42,18.6 -21.86,33.13 -40.31,43.59 -18.46,10.46 -40.03,15.69 -64.73,15.69z"/>
   <path id="76" class="fil1" d="M11132.8 8877.86c36.32,0 64.22,8.64 83.68,25.93 19.47,17.29 29.21,43.37 29.21,78.23l0 133.81 -63.64 0 0 -29.2c-12.78,21.79 -36.61,32.69 -71.48,32.69 -18.01,0 -33.63,-3.05 -46.85,-9.16 -13.22,-6.1 -23.32,-14.52 -30.29,-25.28 -6.98,-10.75 -10.46,-22.95 -10.46,-36.61 0,-21.79 8.2,-38.93 24.62,-51.43 16.42,-12.49 41.77,-18.74 76.06,-18.74l54.04 0c0,-14.82 -4.5,-26.22 -13.51,-34.21 -9.01,-7.99 -22.52,-11.99 -40.53,-11.99 -12.5,0 -24.77,1.96 -36.83,5.89 -12.06,3.92 -22.3,9.22 -30.73,15.9l-24.41 -47.5c12.79,-9.01 28.12,-15.99 45.99,-20.92 17.87,-4.94 36.24,-7.41 55.13,-7.41zm-5.23 195.69c11.62,0 21.94,-2.69 30.95,-8.06 9,-5.38 15.4,-13.29 19.17,-23.75l0 -23.98 -46.63 0c-27.9,0 -41.84,9.16 -41.84,27.46 0,8.72 3.41,15.62 10.24,20.71 6.83,5.08 16.2,7.62 28.11,7.62z"/>
   <path id="77" class="fil1" d="M11607.44 8877.86c29.35,0 52.67,8.64 69.96,25.93 17.28,17.29 25.93,43.22 25.93,77.8l0 134.24 -67.99 0 0 -123.78c0,-18.6 -3.85,-32.47 -11.55,-41.63 -7.7,-9.15 -18.67,-13.72 -32.91,-13.72 -15.98,0 -28.62,5.15 -37.92,15.47 -9.3,10.31 -13.95,25.64 -13.95,45.98l0 117.68 -67.99 0 0 -123.78c0,-36.9 -14.82,-55.35 -44.46,-55.35 -15.69,0 -28.18,5.15 -37.48,15.47 -9.3,10.31 -13.95,25.64 -13.95,45.98l0 117.68 -67.99 0 0 -234.49 64.94 0 0 27.03c8.72,-9.88 19.4,-17.44 32.04,-22.67 12.64,-5.23 26.51,-7.84 41.62,-7.84 16.56,0 31.53,3.26 44.89,9.8 13.37,6.54 24.12,16.06 32.26,28.55 9.59,-12.2 21.72,-21.65 36.39,-28.33 14.67,-6.68 30.73,-10.02 48.16,-10.02z"/>
   <path id="78" class="fil1" d="M11902.95 8877.86c21.79,0 41.63,5.01 59.5,15.03 17.86,10.03 31.88,24.12 42.05,42.28 10.17,18.16 15.26,39.3 15.26,63.42 0,24.11 -5.09,45.25 -15.26,63.41 -10.17,18.16 -24.19,32.26 -42.05,42.28 -17.87,10.02 -37.71,15.04 -59.5,15.04 -32.25,0 -56.8,-10.17 -73.66,-30.51l0 27.02 -64.94 0 0 -323.4 67.99 0 0 113.76c17.15,-18.89 40.68,-28.33 70.61,-28.33zm-11.77 185.67c17.44,0 31.75,-5.89 42.93,-17.65 11.19,-11.77 16.79,-27.54 16.79,-47.29 0,-19.76 -5.6,-35.53 -16.79,-47.29 -11.18,-11.77 -25.49,-17.66 -42.93,-17.66 -17.43,0 -31.74,5.89 -42.93,17.66 -11.18,11.76 -16.78,27.53 -16.78,47.29 0,19.75 5.6,35.52 16.78,47.29 11.19,11.76 25.5,17.65 42.93,17.65z"/>
   <path id="79" class="fil1" d="M12065.09 8881.34l67.99 0 0 234.49 -67.99 0 0 -234.49zm34 -32.69c-12.5,0 -22.67,-3.63 -30.51,-10.89 -7.85,-7.27 -11.77,-16.27 -11.77,-27.03 0,-10.75 3.92,-19.75 11.77,-27.02 7.84,-7.26 18.01,-10.89 30.51,-10.89 12.49,0 22.66,3.48 30.51,10.46 7.84,6.97 11.76,15.69 11.76,26.15 0,11.33 -3.92,20.7 -11.76,28.11 -7.85,7.41 -18.02,11.11 -30.51,11.11z"/>
   <path id="80" class="fil1" d="M12290.86 8877.86c36.32,0 64.22,8.64 83.68,25.93 19.47,17.29 29.21,43.37 29.21,78.23l0 133.81 -63.64 0 0 -29.2c-12.78,21.79 -36.61,32.69 -71.48,32.69 -18.01,0 -33.63,-3.05 -46.85,-9.16 -13.22,-6.1 -23.32,-14.52 -30.29,-25.28 -6.98,-10.75 -10.46,-22.95 -10.46,-36.61 0,-21.79 8.2,-38.93 24.62,-51.43 16.42,-12.49 41.77,-18.74 76.06,-18.74l54.04 0c0,-14.82 -4.5,-26.22 -13.51,-34.21 -9.01,-7.99 -22.52,-11.99 -40.53,-11.99 -12.5,0 -24.77,1.96 -36.83,5.89 -12.06,3.92 -22.3,9.22 -30.73,15.9l-24.41 -47.5c12.79,-9.01 28.12,-15.99 45.99,-20.92 17.87,-4.94 36.24,-7.41 55.13,-7.41zm-5.23 195.69c11.62,0 21.94,-2.69 30.95,-8.06 9,-5.38 15.4,-13.29 19.17,-23.75l0 -23.98 -46.63 0c-27.9,0 -41.84,9.16 -41.84,27.46 0,8.72 3.41,15.62 10.24,20.71 6.83,5.08 16.2,7.62 28.11,7.62z"/>
   <path id="81" class="fil1" d="M12530.14 8912.29c8.14,-11.33 19.11,-19.91 32.91,-25.72 13.8,-5.81 29.71,-8.71 47.73,-8.71l0 62.76c-7.56,-0.58 -12.64,-0.87 -15.26,-0.87 -19.47,0 -34.72,5.44 -45.76,16.34 -11.05,10.9 -16.57,27.24 -16.57,49.03l0 110.71 -67.99 0 0 -234.49 64.94 0 0 30.95z"/>
   <path id="82" class="fil1" d="M12651.31 8881.34l67.99 0 0 234.49 -67.99 0 0 -234.49zm53.17 -92.83l73.23 0 -78.89 62.76 -53.17 0 58.83 -62.76z"/>
   <path id="83" class="fil1" d="M12877.08 8877.86c36.32,0 64.22,8.64 83.68,25.93 19.47,17.29 29.21,43.37 29.21,78.23l0 133.81 -63.64 0 0 -29.2c-12.78,21.79 -36.61,32.69 -71.48,32.69 -18.01,0 -33.63,-3.05 -46.85,-9.16 -13.22,-6.1 -23.32,-14.52 -30.29,-25.28 -6.98,-10.75 -10.46,-22.95 -10.46,-36.61 0,-21.79 8.2,-38.93 24.62,-51.43 16.42,-12.49 41.77,-18.74 76.06,-18.74l54.04 0c0,-14.82 -4.5,-26.22 -13.51,-34.21 -9.01,-7.99 -22.52,-11.99 -40.53,-11.99 -12.5,0 -24.77,1.96 -36.83,5.89 -12.06,3.92 -22.3,9.22 -30.73,15.9l-24.41 -47.5c12.79,-9.01 28.12,-15.99 45.99,-20.92 17.87,-4.94 36.24,-7.41 55.13,-7.41zm-5.23 195.69c11.62,0 21.94,-2.69 30.95,-8.06 9,-5.38 15.4,-13.29 19.17,-23.75l0 -23.98 -46.63 0c-27.9,0 -41.84,9.16 -41.84,27.46 0,8.72 3.41,15.62 10.24,20.71 6.83,5.08 16.2,7.62 28.11,7.62z"/>
   <path id="84" class="fil1" d="M13193.94 8877.86c29.06,0 52.52,8.71 70.39,26.15 17.87,17.43 26.81,43.29 26.81,77.58l0 134.24 -67.99 0 0 -123.78c0,-18.6 -4.07,-32.47 -12.21,-41.63 -8.13,-9.15 -19.9,-13.72 -35.3,-13.72 -17.14,0 -30.8,5.3 -40.97,15.9 -10.17,10.61 -15.26,26.37 -15.26,47.29l0 115.94 -67.99 0 0 -234.49 64.94 0 0 27.46c9.01,-9.88 20.2,-17.51 33.56,-22.88 13.37,-5.38 28.04,-8.06 44.02,-8.06z"/>
   <path id="85" class="fil1" d="M13378.31 9119.32c-11.92,0 -21.94,-4.07 -30.08,-12.21 -8.13,-8.13 -12.2,-18.3 -12.2,-30.51 0,-12.49 4.07,-22.59 12.2,-30.29 8.14,-7.7 18.16,-11.55 30.08,-11.55 11.91,0 21.93,3.85 30.07,11.55 8.14,7.7 12.2,17.8 12.2,30.29 0,12.21 -4.06,22.38 -12.2,30.51 -8.14,8.14 -18.16,12.21 -30.07,12.21z"/>
  </g>
 </g>
</svg>
